<svg width="80" height="80" viewBox="0 0 80 80" fill="none" xmlns="http://www.w3.org/2000/svg">
<g id="Frame 237779">
<rect width="80" height="80" rx="16" fill="#B3E3FF"/>
<g id="Group">
<path id="Vector" d="M24 34.0225V55.356C24 57.9208 26.1616 60 28.8281 60H51.8229C54.4894 60 56.651 57.9208 56.651 55.356V54.4403" stroke="#306386" stroke-width="3" stroke-miterlimit="10" stroke-linecap="round" stroke-linejoin="round"/>
<path id="Vector_2" d="M44.5519 23.6208C44.3084 21.5829 42.5096 20 40.3257 20C38.1418 20 36.343 21.5829 36.0995 23.6208H33.104C32.2565 23.6208 31.5696 24.2815 31.5696 25.0967V26.9464C31.5696 27.7615 32.2565 28.4223 33.104 28.4223H47.5473C48.3948 28.4223 49.0817 27.7615 49.0817 26.9464V25.0967C49.0817 24.2815 48.3948 23.6208 47.5473 23.6208H44.5519Z" stroke="#306386" stroke-width="3" stroke-miterlimit="10" stroke-linecap="round" stroke-linejoin="round"/>
<path id="Vector_3" d="M40.3254 25.5491C41.1615 25.5491 41.8393 24.8971 41.8393 24.0929C41.8393 23.2887 41.1615 22.6367 40.3254 22.6367C39.4893 22.6367 38.8115 23.2887 38.8115 24.0929C38.8115 24.8971 39.4893 25.5491 40.3254 25.5491Z" stroke="#306386" stroke-width="3" stroke-miterlimit="10" stroke-linecap="round" stroke-linejoin="round"/>
<path id="Vector_4" d="M48.8236 56.2158C50.441 56.2158 51.7521 54.9547 51.7521 53.3989C51.7521 51.8432 50.441 50.582 48.8236 50.582C47.2062 50.582 45.895 51.8432 45.895 53.3989C45.895 54.9547 47.2062 56.2158 48.8236 56.2158Z" stroke="#306386" stroke-width="3" stroke-miterlimit="10" stroke-linecap="round" stroke-linejoin="round"/>
<path id="Vector_5" d="M31.8275 47.207C33.4449 47.207 34.756 45.9459 34.756 44.3901C34.756 42.8344 33.4449 41.5732 31.8275 41.5732C30.2101 41.5732 28.8989 42.8344 28.8989 44.3901C28.8989 45.9459 30.2101 47.207 31.8275 47.207Z" stroke="#306386" stroke-width="3" stroke-miterlimit="10" stroke-linecap="round" stroke-linejoin="round"/>
<path id="Vector_6" d="M47.7125 43.6885C49.3299 43.6885 50.641 42.4273 50.641 40.8716C50.641 39.3159 49.3299 38.0547 47.7125 38.0547C46.0951 38.0547 44.7839 39.3159 44.7839 40.8716C44.7839 42.4273 46.0951 43.6885 47.7125 43.6885Z" stroke="#306386" stroke-width="3" stroke-miterlimit="10" stroke-linecap="round" stroke-linejoin="round"/>
<path id="Vector_7" d="M38.5939 35.7443L39.5538 34.8209C40.0789 34.3159 40.0789 33.4971 39.5538 32.9921C39.0288 32.487 38.1776 32.487 37.6525 32.9921L36.6926 33.9154L35.7326 32.9921C35.2075 32.487 34.3563 32.487 33.8313 32.9921C33.3062 33.4971 33.3062 34.3159 33.8313 34.8209L34.7913 35.7443L33.8313 36.6677C33.3062 37.1727 33.3062 37.9916 33.8313 38.4966C34.0938 38.7491 34.4378 38.8753 34.782 38.8753C35.126 38.8753 35.4701 38.7492 35.7327 38.4966L36.6926 37.5732L37.6526 38.4966C37.9151 38.7491 38.2592 38.8753 38.6033 38.8753C38.9475 38.8753 39.2914 38.7492 39.554 38.4966C40.0791 37.9916 40.0791 37.1727 39.554 36.6677L38.5939 35.7443Z" stroke="#306386" stroke-width="3" stroke-miterlimit="10" stroke-linecap="round" stroke-linejoin="round"/>
<path id="Vector_8" d="M36.5834 53.9699L37.5433 53.0465C38.0684 52.5415 38.0684 51.7227 37.5433 51.2176C37.0183 50.7126 36.1671 50.7126 35.642 51.2176L34.6821 52.141L33.7221 51.2176C33.197 50.7126 32.3458 50.7126 31.8208 51.2176C31.2957 51.7227 31.2957 52.5415 31.8208 53.0465L32.7808 53.9699L31.8208 54.8933C31.2957 55.3983 31.2957 56.2172 31.8208 56.7222C32.0833 56.9747 32.4273 57.1009 32.7715 57.1009C33.1156 57.1009 33.4596 56.9747 33.7222 56.7222L34.6822 55.7988L35.6421 56.7222C35.9046 56.9747 36.2487 57.1009 36.5928 57.1009C36.9369 57.1009 37.2809 56.9747 37.5435 56.7222C38.0686 56.2172 38.0686 55.3983 37.5435 54.8933L36.5834 53.9699Z" stroke="#306386" stroke-width="3" stroke-miterlimit="10" stroke-linecap="round" stroke-linejoin="round"/>
<path id="Vector_9" d="M50.1827 33.9066L47.7125 31.3203L45.2422 33.9066" stroke="#306386" stroke-width="3" stroke-miterlimit="10" stroke-linecap="round" stroke-linejoin="round"/>
<path id="Vector_10" d="M31.5695 26.0605H28.8281C26.1616 26.0605 24 28.1397 24 30.7046V31.2052" stroke="#306386" stroke-width="3" stroke-miterlimit="10" stroke-linecap="round" stroke-linejoin="round"/>
<path id="Vector_11" d="M56.651 51.6231V30.7046C56.651 28.1397 54.4894 26.0605 51.8229 26.0605H49.0815" stroke="#306386" stroke-width="3" stroke-miterlimit="10" stroke-linecap="round" stroke-linejoin="round"/>
<path id="Vector_12" d="M34.6819 43.7581L44.8586 41.5039" stroke="#306386" stroke-width="3" stroke-miterlimit="10" stroke-linecap="round" stroke-linejoin="round"/>
<path id="Vector_13" d="M46.2582 52.0394L34.3926 45.75" stroke="#306386" stroke-width="3" stroke-miterlimit="10" stroke-linecap="round" stroke-linejoin="round"/>
<path id="Vector_14" d="M47.7124 38.0544V31.3203" stroke="#306386" stroke-width="3" stroke-miterlimit="10" stroke-linecap="round" stroke-linejoin="round"/>
</g>
</g>
</svg>
