<svg width="24" height="24" viewBox="0 0 24 24" fill="none" xmlns="http://www.w3.org/2000/svg">
<g clip-path="url(#clip0_1211_13655)">
<path d="M9.71191 14.4422L9.95993 14.8591C10.3297 15.4807 10.5286 16.2263 10.5286 16.9912C10.5286 17.4584 10.4544 17.9214 10.3099 18.3549L9.97937 19.3467H13.0207L12.6902 18.3549C12.5457 17.9214 12.4715 17.4584 12.4715 16.9912C12.4715 16.2263 12.6704 15.4807 13.0402 14.8591L13.2881 14.4423" stroke="#306386" stroke-miterlimit="10" stroke-linecap="round" stroke-linejoin="round"/>
<path d="M5.26653 4.88862H3.02471C2.8307 4.88862 2.67924 5.0584 2.69726 5.25508C2.75298 5.86331 2.88633 6.65489 3.19125 7.47525C3.70322 8.85271 4.54092 9.92224 5.69342 10.6748" stroke="#306386" stroke-miterlimit="10" stroke-linecap="round" stroke-linejoin="round"/>
<path d="M7.57604 13.293C3.9027 12.3519 2.30691 9.9134 1.6145 8.00642C0.857029 5.92033 1.0103 4.0471 1.01717 3.9684C1.05535 3.53255 1.41405 3.19845 1.84378 3.19845H5.26669" stroke="#306386" stroke-miterlimit="10" stroke-linecap="round" stroke-linejoin="round"/>
<path d="M17.7334 4.88737H19.9752C20.1692 4.88737 20.3207 5.05715 20.3027 5.25383C20.2712 5.59672 20.2152 5.9979 20.1176 6.42969" stroke="#306386" stroke-miterlimit="10" stroke-linecap="round" stroke-linejoin="round"/>
<path d="M15.4238 13.293C19.0972 12.352 20.6931 9.9134 21.3855 8.00642C22.1429 5.92033 21.9897 4.0471 21.9828 3.9684C21.9446 3.53255 21.5859 3.19845 21.1562 3.19845H17.7333" stroke="#306386" stroke-miterlimit="10" stroke-linecap="round" stroke-linejoin="round"/>
<path d="M19.5792 8.0251C19.071 9.11761 18.3314 9.98935 17.3667 10.6348" stroke="#306386" stroke-miterlimit="10" stroke-linecap="round" stroke-linejoin="round"/>
<path d="M9.12141 -0.000896504H18.1491C18.3913 -0.000896504 18.5877 0.199112 18.5877 0.445718V1.56706C18.5877 1.81366 18.3913 2.01367 18.1491 2.01367H4.85169C4.60946 2.01367 4.41309 1.81366 4.41309 1.56706V0.445718C4.41309 0.199112 4.60946 -0.000896504 4.85169 -0.000896504H7.45378" stroke="#306386" stroke-miterlimit="10" stroke-linecap="round" stroke-linejoin="round"/>
<path d="M11.4999 14.707C8.05738 14.707 5.2666 11.8653 5.2666 8.35989V2.01274H17.7332V8.35989C17.7332 11.8653 14.9425 14.707 11.4999 14.707Z" stroke="#306386" stroke-miterlimit="10" stroke-linecap="round" stroke-linejoin="round"/>
<path d="M15.2865 21.6729H7.71387V20.552C7.71387 19.8864 8.24381 19.3468 8.89752 19.3468H14.1028C14.7565 19.3468 15.2865 19.8864 15.2865 20.552V21.6729Z" stroke="#306386" stroke-miterlimit="10" stroke-linecap="round" stroke-linejoin="round"/>
<path d="M16.9364 23.999H6.0637C5.89422 23.999 5.75684 23.8591 5.75684 23.6866V21.9854C5.75684 21.8128 5.89422 21.6729 6.0637 21.6729H16.9364C17.1059 21.6729 17.2433 21.8128 17.2433 21.9854V23.6866C17.2433 23.8591 17.1059 23.999 16.9364 23.999Z" stroke="#306386" stroke-miterlimit="10" stroke-linecap="round" stroke-linejoin="round"/>
<path d="M11.9412 5.66308L12.3973 6.60411C12.4689 6.75197 12.6075 6.85448 12.7677 6.87819L13.7876 7.02909C14.1912 7.08878 14.3523 7.59377 14.0603 7.88359L13.3223 8.61612C13.2063 8.73124 13.1534 8.89706 13.1808 9.0596L13.355 10.0939C13.424 10.5031 13.0021 10.8152 12.6411 10.622L11.7289 10.1337C11.5856 10.0569 11.4144 10.0569 11.271 10.1337L10.3588 10.622C9.99787 10.8152 9.57601 10.5031 9.64491 10.0939L9.81914 9.0596C9.8465 8.89706 9.79358 8.73124 9.67763 8.61612L8.93965 7.88359C8.64763 7.59377 8.80877 7.08878 9.21233 7.02909L10.2322 6.87819C10.3925 6.85448 10.531 6.75197 10.6026 6.60411L11.0588 5.66308C11.2392 5.29068 11.7607 5.29068 11.9412 5.66308Z" stroke="#D2398D" stroke-miterlimit="10" stroke-linecap="round" stroke-linejoin="round"/>
</g>
<defs>
<clipPath id="clip0_1211_13655">
<rect width="24" height="24" fill="white"/>
</clipPath>
</defs>
</svg>
