<svg width="24" height="24" viewBox="0 0 24 24" fill="none" xmlns="http://www.w3.org/2000/svg">
<path id="Vector" d="M20.4 2.4H18V1.2C18 0.88174 17.8736 0.576515 17.6485 0.351472C17.4235 0.126428 17.1183 0 16.8 0C16.4817 0 16.1765 0.126428 15.9515 0.351472C15.7264 0.576515 15.6 0.88174 15.6 1.2V2.4H8.4V1.2C8.4 0.88174 8.27357 0.576515 8.04853 0.351472C7.82348 0.126428 7.51826 0 7.2 0C6.88174 0 6.57652 0.126428 6.35147 0.351472C6.12643 0.576515 6 0.88174 6 1.2V2.4H3.6C2.64522 2.4 1.72955 2.77928 1.05442 3.45442C0.379285 4.12955 0 5.04522 0 6V20.4C0 21.3548 0.379285 22.2705 1.05442 22.9456C1.72955 23.6207 2.64522 24 3.6 24H20.4C21.3548 24 22.2705 23.6207 22.9456 22.9456C23.6207 22.2705 24 21.3548 24 20.4V6C24 5.04522 23.6207 4.12955 22.9456 3.45442C22.2705 2.77928 21.3548 2.4 20.4 2.4ZM21.6 20.4C21.6 20.7183 21.4736 21.0235 21.2485 21.2485C21.0235 21.4736 20.7183 21.6 20.4 21.6H3.6C3.28174 21.6 2.97652 21.4736 2.75147 21.2485C2.52643 21.0235 2.4 20.7183 2.4 20.4V12H21.6V20.4ZM21.6 9.6H2.4V6C2.4 5.68174 2.52643 5.37652 2.75147 5.15147C2.97652 4.92643 3.28174 4.8 3.6 4.8H6V6C6 6.31826 6.12643 6.62348 6.35147 6.84853C6.57652 7.07357 6.88174 7.2 7.2 7.2C7.51826 7.2 7.82348 7.07357 8.04853 6.84853C8.27357 6.62348 8.4 6.31826 8.4 6V4.8H15.6V6C15.6 6.31826 15.7264 6.62348 15.9515 6.84853C16.1765 7.07357 16.4817 7.2 16.8 7.2C17.1183 7.2 17.4235 7.07357 17.6485 6.84853C17.8736 6.62348 18 6.31826 18 6V4.8H20.4C20.7183 4.8 21.0235 4.92643 21.2485 5.15147C21.4736 5.37652 21.6 5.68174 21.6 6V9.6Z" fill="#B3E3FF"/>
</svg>
