<svg width="140" height="140" viewBox="0 0 140 140" fill="none" xmlns="http://www.w3.org/2000/svg">
<path d="M94.6728 61.7645H85.0704V47.9952C85.0618 46.405 84.4251 44.8827 83.299 43.7597C82.173 42.6368 80.6489 42.0043 79.0587 42H46.6116C45.0214 42.0043 43.4973 42.6368 42.3712 43.7597C41.2452 44.8827 40.6085 46.405 40.5999 47.9952V70.5598C40.5998 72.1557 41.2327 73.6865 42.3597 74.8165C43.4866 75.9466 45.0157 76.5836 46.6116 76.588H47.1881V84.8232C47.1873 85.1382 47.2769 85.4468 47.4462 85.7125C47.6155 85.9782 47.8575 86.1897 48.1434 86.322C48.3614 86.4181 48.5969 86.4685 48.8351 86.4702C49.2277 86.4703 49.6074 86.3301 49.9057 86.0749L60.974 76.588H63.6587V84.5761C63.6674 85.9551 64.2213 87.2747 65.1995 88.2467C66.1777 89.2188 67.5008 89.7643 68.8799 89.7643H82.7481L90.4893 97.5219C90.6432 97.6745 90.8257 97.7953 91.0264 97.8773C91.227 97.9592 91.4419 98.0008 91.6587 97.9995C91.8747 98.0051 92.0891 97.96 92.2846 97.8678C92.5853 97.7442 92.8428 97.5344 93.0245 97.2647C93.2063 96.9951 93.3041 96.6777 93.3057 96.3525V89.7643H94.6728C96.0547 89.7643 97.3802 89.2165 98.3589 88.2409C99.3376 87.2653 99.8896 85.9415 99.894 84.5597V66.9692C99.8896 65.5873 99.3376 64.2635 98.3589 63.288C97.3802 62.3124 96.0547 61.7645 94.6728 61.7645ZM60.3646 73.2939C59.972 73.2938 59.5923 73.434 59.294 73.6892L50.4822 81.2326V74.9409C50.4822 74.5041 50.3087 74.0852 49.9998 73.7763C49.6909 73.4674 49.272 73.2939 48.8351 73.2939H46.6116C46.2533 73.2939 45.8986 73.223 45.5678 73.0854C45.237 72.9478 44.9367 72.7462 44.6841 72.4921C44.4315 72.238 44.2317 71.9364 44.0961 71.6048C43.9605 71.2732 43.8918 70.918 43.894 70.5598V47.9952C43.8983 47.2773 44.1866 46.5903 44.6958 46.0842C45.2049 45.5781 45.8937 45.2941 46.6116 45.2941H79.0587C79.7766 45.2941 80.4654 45.5781 80.9745 46.0842C81.4837 46.5903 81.772 47.2773 81.7763 47.9952V70.5598C81.7785 70.918 81.7098 71.2732 81.5742 71.6048C81.4386 71.9364 81.2388 72.238 80.9862 72.4921C80.7336 72.7462 80.4333 72.9478 80.1025 73.0854C79.7717 73.223 79.417 73.2939 79.0587 73.2939H60.3646ZM96.5998 84.5761C96.5912 85.0815 96.3844 85.5632 96.0239 85.9175C95.6634 86.2718 95.1782 86.4703 94.6728 86.4702H91.6587C91.2218 86.4702 90.8029 86.6438 90.494 86.9526C90.1851 87.2615 90.0116 87.6804 90.0116 88.1173V92.3996L84.5928 86.9643C84.4402 86.8087 84.2583 86.6849 84.0576 86.6001C83.8569 86.5153 83.6413 86.4711 83.4234 86.4702H68.8799C68.3716 86.4702 67.8839 86.2695 67.523 85.9116C67.1621 85.5538 66.9571 85.0679 66.9528 84.5597V76.588H79.0587C80.6546 76.5836 82.1837 75.9466 83.3106 74.8165C84.4376 73.6865 85.0704 72.1557 85.0704 70.5598V65.0586H94.6728C95.181 65.0586 95.6687 65.2594 96.0296 65.6172C96.3906 65.9751 96.5955 66.461 96.5998 66.9692V84.5761Z" fill="#306386"/>
<ellipse cx="53.7763" cy="58.4707" rx="2.7451" ry="2.7451" fill="#306386"/>
<ellipse cx="63.3842" cy="58.4707" rx="2.47059" ry="2.7451" fill="#306386"/>
<ellipse cx="72.9919" cy="58.4707" rx="2.7451" ry="2.7451" fill="#306386"/>
<rect x="0.5" y="0.5" width="139" height="139" rx="69.5" stroke="#D2398D"/>
</svg>
