<svg width="56" height="56" viewBox="0 0 56 56" fill="none" xmlns="http://www.w3.org/2000/svg">
<g id="checked 1" clip-path="url(#clip0_1266_4521)">
<g id="Group">
<g id="Group_2">
<path id="Vector" d="M54.3987 7.65554C53.5748 6.83031 52.2382 6.82889 51.4144 7.65204L26.0948 32.9048L16.9596 22.983C16.1702 22.1262 14.8356 22.0706 13.9774 22.8599C13.1198 23.6492 13.0649 24.9845 13.8542 25.8421L24.4774 37.3791C24.8664 37.8019 25.4109 38.0475 25.985 38.0594C26.0004 38.06 26.0153 38.06 26.0301 38.06C26.588 38.06 27.1247 37.8384 27.5201 37.4445L54.3945 10.6405C55.2204 9.81745 55.2218 8.48078 54.3987 7.65554Z" fill="#306386"/>
</g>
</g>
<g id="Group_3">
<g id="Group_4">
<path id="Vector_2" d="M53.8894 25.8894C52.7237 25.8894 51.7789 26.8342 51.7789 28C51.7789 41.1122 41.1122 51.7789 28 51.7789C14.8886 51.7789 4.22111 41.1122 4.22111 28C4.22111 14.8886 14.8886 4.22111 28 4.22111C29.1657 4.22111 30.1106 3.27633 30.1106 2.11061C30.1106 0.944781 29.1657 0 28 0C12.5606 0 0 12.5606 0 28C0 43.4387 12.5606 56 28 56C43.4387 56 56 43.4387 56 28C56 26.8343 55.0552 25.8894 53.8894 25.8894Z" fill="#306386"/>
</g>
</g>
</g>
<defs>
<clipPath id="clip0_1266_4521">
<rect width="56" height="56" fill="white"/>
</clipPath>
</defs>
</svg>
