<svg width="25" height="24" viewBox="0 0 25 24" fill="none" xmlns="http://www.w3.org/2000/svg">
<path d="M4.39677 16.6575H21.4446C23.3286 16.6575 24.856 15.1065 24.856 13.1928V3.46472C24.856 1.55129 23.3286 0 21.4446 0H4.39677C2.51278 0 0.985352 1.55129 0.985352 3.46472V13.1931C0.985352 15.1065 2.51278 16.6575 4.39677 16.6575ZM2.37671 3.46472C2.37671 2.33345 3.2829 1.4131 4.39677 1.4131H21.4446C22.5585 1.4131 23.4647 2.33315 23.4647 3.46472V13.1931C23.4647 14.3244 22.5585 15.2447 21.4446 15.2447H4.39677C3.2829 15.2447 2.37671 14.3247 2.37671 13.1931V3.46472Z" fill="#889199"/>
<path d="M11.4675 12.1088C11.7351 12.1088 11.9992 12.0163 12.2418 11.833L15.3223 9.40773C15.6789 9.13862 15.8919 8.71436 15.8922 8.27282C15.8922 7.86341 15.7084 7.49005 15.3936 7.25186L12.2305 4.81386C11.9992 4.6393 11.7351 4.54688 11.4675 4.54688C10.7824 4.54688 10.2456 5.13872 10.2456 5.89391V10.7614C10.2456 11.5172 10.7824 12.1088 11.4675 12.1088ZM11.8787 6.31727L14.3 8.18373C14.3782 8.24403 14.3788 8.36313 14.3012 8.42404L11.8778 10.3317C11.7796 10.409 11.637 10.3378 11.6373 10.212L11.6394 6.43818C11.6394 6.31272 11.7805 6.24151 11.8787 6.31727Z" fill="#889199"/>
<path d="M24.8559 21.1979C24.8559 20.8075 24.5444 20.4912 24.1601 20.4912H10.7624C10.5574 18.9899 9.29881 17.8262 7.76512 17.8262C6.23143 17.8262 4.97255 18.9899 4.76756 20.4912H1.89651C1.5122 20.4912 1.20068 20.8075 1.20068 21.1979C1.20068 21.5882 1.5122 21.9046 1.89651 21.9046H4.90094C5.31002 23.1186 6.43284 23.9998 7.76512 23.9998C9.0974 23.9998 10.2199 23.1186 10.629 21.9046H24.1601C24.5444 21.9046 24.8559 21.5882 24.8559 21.1979ZM7.76512 22.5867C6.85624 22.5867 6.11715 21.8361 6.11715 20.9133C6.11715 19.9902 6.85624 19.2396 7.76512 19.2396C8.6734 19.2396 9.41279 19.9902 9.41279 20.9133C9.41279 21.8358 8.67369 22.5867 7.76512 22.5867Z" fill="#889199"/>
</svg>
