<svg width="40" height="40" viewBox="0 0 40 40" fill="none" xmlns="http://www.w3.org/2000/svg">
<path d="M39.7458 18.9693C39.3885 18.4804 30.8742 7 19.9998 7C9.1255 7 0.610783 18.4804 0.253829 18.9688C-0.0846096 19.4325 -0.0846096 20.0615 0.253829 20.5253C0.610783 21.0141 9.1255 32.4945 19.9998 32.4945C30.8742 32.4945 39.3885 21.014 39.7458 20.5257C40.0847 20.062 40.0847 19.4325 39.7458 18.9693ZM19.9998 29.8572C11.9897 29.8572 5.05212 22.2374 2.99845 19.7464C5.04947 17.2532 11.9725 9.63735 19.9998 9.63735C28.0095 9.63735 34.9467 17.2558 37.0012 19.7482C34.9502 22.2413 28.0271 29.8572 19.9998 29.8572Z" fill="#306386"/>
<path d="M20 11.835C15.6374 11.835 12.0879 15.3844 12.0879 19.7471C12.0879 24.1098 15.6374 27.6592 20 27.6592C24.3627 27.6592 27.9122 24.1098 27.9122 19.7471C27.9122 15.3844 24.3627 11.835 20 11.835ZM20 25.0218C17.0914 25.0218 14.7253 22.6556 14.7253 19.7471C14.7253 16.8386 17.0915 14.4724 20 14.4724C22.9085 14.4724 25.2747 16.8386 25.2747 19.7471C25.2747 22.6556 22.9086 25.0218 20 25.0218Z" fill="#306386"/>
</svg>
