<svg width="25" height="24" viewBox="0 0 25 24" fill="none" xmlns="http://www.w3.org/2000/svg">
<g id="&#216;&#167;&#217;&#132;&#217;&#129;&#216;&#185;&#216;&#167;&#217;&#132;&#217;&#138;&#216;&#167;&#216;&#170;" clip-path="url(#clip0_1244_16481)">
<g id="Group 8">
<path id="Vector" d="M15.8117 12.3438C16.1391 11.9884 17.3848 11.5703 17.0972 11.0042C15.9528 9.51171 14.8082 8.01902 13.6638 6.52658C16.4186 4.90137 19.1928 3.30281 21.9386 1.6644C22.2226 1.41029 21.9256 0.882258 21.5575 1.02366C17.5836 2.12338 13.6094 3.22335 9.63551 4.32333C9.14963 4.58861 7.23857 4.57135 7.78818 5.42457C9.0001 6.90457 11.639 10.1268 11.7464 10.2581C10.2087 12.7172 8.6711 15.1763 7.13347 17.6355C6.93978 17.9452 7.33859 18.3816 7.65439 18.1564C10.3735 16.2189 13.0923 14.2812 15.8117 12.3438ZM11.9446 11.3766C12.1162 10.9346 12.8245 10.4424 12.482 9.96028C11.228 8.429 9.97416 6.89797 8.72035 5.36669C11.9581 4.47057 15.766 3.41679 18.9758 2.52854C16.9644 3.70797 14.9234 4.90492 12.9098 6.08562C12.7486 6.18006 12.6473 6.44255 12.7732 6.60654C13.9255 8.10914 15.0775 9.61148 16.2298 11.1141C13.7524 12.8794 11.2749 14.6448 8.79727 16.4101C9.84647 14.7321 10.8957 13.0541 11.9449 11.3761L11.9446 11.3766Z" fill="#D2398D"/>
<path id="Vector_2" d="M3.61124 5.746C3.77117 4.60871 3.93085 3.47167 4.09078 2.33438C4.14689 1.93557 3.63003 1.63652 3.3947 2.04092C2.56356 3.47015 1.73217 4.89913 0.901036 6.32836C0.765729 6.65254 0.289487 7.05363 0.60732 7.39711L3.45055 9.78466C3.47695 11.4502 3.53737 15.2505 3.54118 15.4851C3.46756 15.9385 4.21771 16.0509 4.29666 15.6034C4.93741 13.6695 6.4004 9.25358 6.49128 8.97941C6.53393 8.85096 6.48468 8.70296 6.39329 8.60903C5.46594 7.65477 4.53834 6.70051 3.61099 5.74626L3.61124 5.746ZM4.26773 13.2722C4.13089 8.58212 4.97752 10.1093 1.36636 7.04373C1.93755 6.06155 2.50898 5.07937 3.08017 4.09693C3.01213 4.58053 2.9441 5.06413 2.87632 5.54774C2.84586 5.76504 2.79204 5.95975 2.94258 6.15065C3.71076 6.94752 4.92776 8.18864 5.69061 8.97815C5.2164 10.4094 4.74194 11.8409 4.26773 13.2722Z" fill="#306386"/>
<path id="Vector_3" d="M24.2274 16.3867C23.6021 16.2826 17.1521 15.2273 16.7215 15.1557C16.4649 15.1136 16.2603 15.2575 16.2395 15.5228C16.126 16.9683 16.0125 18.414 15.899 19.8595C15.899 19.8595 9.34868 19.9795 9.0311 20.0075C8.65843 20.0862 8.64473 20.7023 9.04379 20.7536C11.6646 21.4423 17.6626 23.0185 18.0406 23.1178C18.2993 23.1858 18.4978 22.9949 18.5227 22.7507C18.678 21.2158 18.8336 19.6813 18.989 18.1464C20.5051 17.8497 23.9972 17.166 24.2271 17.1211C24.5846 17.051 24.5968 16.4473 24.2274 16.3867ZM19.2294 17.3252C18.8857 17.4346 18.2896 17.3432 18.2599 17.8273C18.1099 19.3081 17.9599 20.7888 17.8098 22.2694C15.8234 21.7474 13.8367 21.2252 11.8502 20.7033C13.317 20.6733 14.7838 20.6436 16.2506 20.6137C16.4684 20.6094 16.6149 20.4421 16.6314 20.2329C16.7431 18.8095 16.8548 17.3864 16.9665 15.963C18.6389 16.2371 20.3111 16.5116 21.9835 16.7857C21.0656 16.9655 20.1474 17.1452 19.2294 17.3247V17.3252Z" fill="#306386"/>
</g>
</g>
<defs>
<clipPath id="clip0_1244_16481">
<rect width="24" height="24" fill="white" transform="translate(0.5)"/>
</clipPath>
</defs>
</svg>
