<svg width="80" height="80" viewBox="0 0 80 80" fill="none" xmlns="http://www.w3.org/2000/svg">
<rect width="80" height="80" rx="16" fill="#E2F4FE"/>
<path d="M67.7486 54.9512L63.794 37.6641C62.6612 32.7158 58.3819 29.2588 53.3887 29.2588H26.5494C21.5411 29.2588 17.2618 32.7285 16.1441 37.6943L12.2447 54.9238C11.5889 57.8047 12.2657 60.7764 14.1021 63.0782C15.8916 65.3213 18.544 66.6075 21.378 66.6075C23.627 66.6075 25.8057 65.7832 27.5162 64.2842C28.5844 63.3394 29.4115 62.1618 29.9716 60.8562C30.2256 60.8932 30.4831 60.919 30.7471 60.919C33.4279 60.919 35.657 58.9382 36.1045 56.3428H43.7233C44.1707 58.9382 46.3998 60.919 49.0811 60.919C49.3079 60.919 49.53 60.9003 49.7495 60.8728C51.1862 64.4272 54.576 66.7767 58.4913 66.8047C61.3726 66.8047 64.0645 65.501 65.8765 63.2266C67.7359 60.8946 68.418 57.8779 67.7486 54.9512ZM31.7471 31.2588H48.0811V35.4346C48.0811 36.1113 47.5357 36.6611 46.8521 36.6611C45.0787 36.6611 43.6358 38.1094 43.6358 39.8887C43.6358 40.6084 43.0552 41.1934 42.3418 41.1934H37.479C36.7652 41.1934 36.1846 40.6084 36.1846 39.8818C36.1846 38.1025 34.7417 36.6543 32.9634 36.6543C32.2925 36.6543 31.7471 36.1045 31.7471 35.4277V31.2588ZM30.7471 58.919C28.8477 58.919 27.3023 57.335 27.3023 55.3877C27.3023 53.4404 28.8477 51.8555 30.7471 51.8555C32.6465 51.8555 34.1915 53.4404 34.1915 55.3877C34.1915 57.335 32.6465 58.919 30.7471 58.919ZM49.0811 58.919C47.1817 58.919 45.6363 57.335 45.6363 55.3877C45.6363 53.4404 47.1817 51.8555 49.0811 51.8555C50.9805 51.8555 52.5254 53.4404 52.5254 55.3877C52.5254 57.335 50.9805 58.919 49.0811 58.919ZM64.3126 61.9805C62.8819 63.7754 60.7603 64.8047 58.4571 64.8047C55.4573 64.7824 52.8397 62.979 51.6742 60.2503C53.3711 59.3125 54.5255 57.4844 54.5255 55.3877C54.5255 52.3369 52.0831 49.8555 49.0811 49.8555C46.4305 49.8555 44.2193 51.7904 43.7367 54.3428H36.091C35.6085 51.7904 33.3973 49.8555 30.7471 49.8555C27.7447 49.8555 25.3023 52.3369 25.3023 55.3877C25.3023 57.4542 26.4255 59.2569 28.0826 60.2063C27.6394 61.187 27.0014 62.0697 26.1944 62.7832C24.8526 63.96 23.1416 64.6074 21.378 64.6074C19.1558 64.6074 17.0738 63.5957 15.6656 61.8311C14.211 60.0078 13.6748 57.6514 14.1949 55.3662L18.0948 38.1348C19.0059 34.0859 22.483 31.2588 26.5494 31.2588H29.7471V35.4277C29.7471 37.207 31.19 38.6543 32.9683 38.6543C33.6392 38.6543 34.1846 39.2051 34.1846 39.8887C34.1846 41.7109 35.6626 43.1934 37.479 43.1934H42.3418C44.1583 43.1934 45.6358 41.7109 45.6358 39.8887C45.6358 39.2119 46.1812 38.6611 46.8648 38.6611C48.6382 38.6611 50.0811 37.2139 50.0811 35.4346V31.2588H53.3887C57.4439 31.2588 60.921 34.0762 61.8448 38.1104L65.7994 55.3965C66.3321 57.7276 65.7901 60.127 64.3126 61.9805Z" fill="#306386"/>
<path d="M28.5864 44.7061H25.2529V41.2119C25.2529 40.6592 24.8052 40.2119 24.2529 40.2119C23.7007 40.2119 23.2529 40.6592 23.2529 41.2119V44.7061H19.9194C19.3672 44.7061 18.9194 45.1533 18.9194 45.7061C18.9194 46.2588 19.3672 46.7061 19.9194 46.7061H23.2529V50.0498C23.2529 50.6025 23.7007 51.0498 24.2529 51.0498C24.8052 51.0498 25.2529 50.6025 25.2529 50.0498V46.7061H28.5864C29.1387 46.7061 29.5864 46.2588 29.5864 45.7061C29.5864 45.1533 29.1387 44.7061 28.5864 44.7061Z" fill="#306386"/>
<path d="M51.3674 46.8362C51.9888 46.8362 52.4924 46.3303 52.4924 45.7062C52.4924 45.0821 51.9888 44.5762 51.3674 44.5762C50.7461 44.5762 50.2424 45.0821 50.2424 45.7062C50.2424 46.3303 50.7461 46.8362 51.3674 46.8362Z" fill="#306386"/>
<path d="M60.0339 46.8362C60.6553 46.8362 61.1589 46.3303 61.1589 45.7062C61.1589 45.0821 60.6553 44.5762 60.0339 44.5762C59.4126 44.5762 58.9089 45.0821 58.9089 45.7062C58.9089 46.3303 59.4126 46.8362 60.0339 46.8362Z" fill="#306386"/>
<path d="M55.7007 40.0811C55.0793 40.0811 54.5757 40.5872 54.5757 41.2115C54.5757 41.8358 55.0793 42.342 55.7007 42.342C56.322 42.342 56.8257 41.8358 56.8257 41.2115C56.8257 40.5872 56.322 40.0811 55.7007 40.0811Z" fill="#306386"/>
<path d="M55.7007 51.1799C56.322 51.1799 56.8257 50.674 56.8257 50.0499C56.8257 49.4258 56.322 48.9199 55.7007 48.9199C55.0794 48.9199 54.5757 49.4258 54.5757 50.0499C54.5757 50.674 55.0794 51.1799 55.7007 51.1799Z" fill="#306386"/>
<path d="M44.88 22.5498C45.1754 22.5498 45.4689 22.419 45.6662 22.169C46.008 21.7354 45.9332 21.1065 45.4997 20.7646C43.8888 19.4951 41.9572 18.8242 39.9142 18.8242C37.8717 18.8242 35.9415 19.4941 34.3317 20.7627C33.8976 21.1035 33.8229 21.7324 34.1647 22.167C34.5065 22.6006 35.1359 22.6748 35.569 22.333C36.8229 21.3457 38.3253 20.8242 39.9142 20.8242C41.5036 20.8242 43.007 21.3467 44.2614 22.335C44.445 22.4795 44.6632 22.5498 44.88 22.5498Z" fill="#306386"/>
<path d="M31.4243 19.5098C31.6802 19.5098 31.9361 19.4121 32.1314 19.2168C34.2061 17.1426 36.9702 16 39.9146 16C42.8589 16 45.6226 17.1426 47.6973 19.2168C48.0879 19.6074 48.7207 19.6074 49.1113 19.2168C49.502 18.8262 49.502 18.1934 49.1113 17.8027C46.6592 15.3506 43.3931 14 39.9146 14C36.4365 14 33.1699 15.3506 30.7173 17.8027C30.3267 18.1934 30.3267 18.8262 30.7173 19.2168C30.9126 19.4121 31.1685 19.5098 31.4243 19.5098Z" fill="#306386"/>
<path d="M39.9146 26.2861C40.4668 26.2861 40.9146 25.8384 40.9146 25.2861C40.9146 24.7338 40.4668 24.2861 39.9146 24.2861C39.3623 24.2861 38.9146 24.7338 38.9146 25.2861C38.9146 25.8384 39.3623 26.2861 39.9146 26.2861Z" fill="#306386"/>
</svg>
