<svg width="21" height="24" viewBox="0 0 21 24" fill="none" xmlns="http://www.w3.org/2000/svg">
<g id="Group 48">
<path id="Vector" d="M15.4667 9.70199C15.3394 9.65786 15.1958 9.68302 15.0909 9.77011C14.3391 10.3972 13.3877 10.7429 12.4118 10.7429C11.439 10.7429 10.4895 10.3987 9.73779 9.77398C9.63288 9.6865 9.48966 9.66134 9.36192 9.70663C7.7133 10.2873 6.32752 11.5047 5.51347 13.0604H4.5469C4.14588 13.0604 3.83156 13.3743 3.83156 13.7746V14.5511L3.26912 13.991C3.13247 13.8551 2.94706 13.7761 2.75119 13.7831C2.56035 13.787 2.385 13.8644 2.26694 13.991L0.935347 15.3175C0.798704 15.4538 0.722447 15.6427 0.725544 15.8354C0.729028 16.024 0.809155 16.2043 0.935347 16.3205L1.49353 16.8763H0.715867C0.314841 16.8763 0.000523132 17.1903 0.000523132 17.5905L0.000910195 19.452C-0.00876707 19.6448 0.0589738 19.8283 0.192133 19.968C0.323744 20.1058 0.507999 20.1856 0.697673 20.1856H1.47998L0.93496 20.7406C0.798317 20.8773 0.722447 21.0658 0.725544 21.2586C0.729028 21.4494 0.806833 21.6248 0.935347 21.7436L2.26694 23.0694C2.40358 23.2056 2.58009 23.2869 2.78525 23.2776C2.97609 23.2742 3.15183 23.1964 3.2695 23.0698L3.82924 22.5124C3.83001 22.5127 3.83078 22.5131 3.83156 22.5135V23.2862C3.83156 23.6864 4.14588 24.0003 4.5469 24.0003H6.43474C6.83616 24.0003 7.15047 23.6864 7.15047 23.2862V22.5104L7.71214 23.0694C7.84878 23.2056 8.0311 23.2869 8.23046 23.2776C8.42129 23.2742 8.59703 23.1964 8.71471 23.0698L10.0467 21.7432C10.1833 21.6066 10.2592 21.4181 10.2561 21.2253C10.2526 21.0345 10.1748 20.8591 10.0463 20.7403L9.48811 20.1844H10.2658C10.5232 20.1844 10.7434 20.0543 10.8693 19.8561H19.7418C19.9558 19.8561 20.1288 19.6831 20.1288 19.4691V16.2879C20.1288 13.3252 18.2553 10.6782 15.4667 9.70199ZM10.2073 19.4106H9.21676C9.04373 19.4106 8.88967 19.5337 8.84206 19.7001C8.82425 19.7625 8.72477 20.0141 8.6969 20.0652C8.60129 20.2185 8.62413 20.417 8.75225 20.5444L9.45327 21.2419L8.21381 22.476L7.51085 21.7757C7.39163 21.6569 7.19305 21.6379 7.04325 21.7157C6.99293 21.7417 6.64029 21.8717 6.607 21.8868C6.46687 21.9488 6.37668 22.0877 6.37668 22.2406V23.2258H4.60613V22.241C4.60613 22.068 4.48265 21.9131 4.31581 21.8663C4.25271 21.8481 4.00033 21.7494 3.94885 21.7215C3.79672 21.6275 3.59892 21.6495 3.47156 21.7761L2.769 22.4764L1.52876 21.2419L2.21507 20.5413C2.33236 20.4213 2.34861 20.2719 2.27236 20.0749C2.25223 20.0222 2.1152 19.6734 2.10049 19.6398C2.03817 19.5004 1.89959 19.4106 1.74708 19.4106H0.774704V17.6501H1.76488C1.93752 17.6501 2.09159 17.5274 2.1392 17.3613C2.157 17.2983 2.25649 17.0474 2.28397 16.9975C2.38036 16.8442 2.3579 16.6448 2.22939 16.5167L1.52837 15.8192L2.76783 14.5847L3.47079 15.285C3.59001 15.4046 3.78124 15.4271 3.93607 15.3632C3.98872 15.3415 4.34136 15.189 4.37465 15.1743C4.51477 15.1124 4.60535 14.9734 4.60535 14.8201V13.8353H6.36661V14.8201C6.36661 14.9931 6.4901 15.148 6.65693 15.1948C6.72003 15.213 6.97202 15.3117 7.02235 15.3392C7.17602 15.4352 7.37344 15.4123 7.50118 15.285L8.20375 14.5847L9.43431 15.8188L8.73329 16.5175C8.6129 16.6371 8.59393 16.8372 8.67251 16.9874C8.69884 17.0374 8.82967 17.3884 8.84438 17.4217C8.9067 17.5611 9.04528 17.6509 9.19779 17.6509H10.2062V19.4106H10.2073ZM19.3547 19.0824H16.6036V17.4256C16.6036 17.2119 16.4302 17.0385 16.2165 17.0385C16.0028 17.0385 15.8294 17.2119 15.8294 17.4256V19.0824H10.9815V17.5897C10.9815 17.57 10.98 17.5506 10.9769 17.5317C10.9192 17.1519 10.6126 16.8759 10.2476 16.8759H9.47031L10.0281 16.3201C10.1651 16.1838 10.2414 15.9953 10.2379 15.8021C10.2344 15.6136 10.1543 15.4332 10.0293 15.3183L8.7058 13.9906C8.56955 13.8547 8.37678 13.7757 8.18788 13.7827C7.99704 13.7866 7.82169 13.864 7.70363 13.991L7.14389 14.548C7.14312 14.5476 7.14234 14.5472 7.14157 14.5472V13.7742C7.14157 13.3797 6.82183 13.06 6.42739 13.06H6.39565C7.09938 11.908 8.1693 11.0014 9.42115 10.5102C10.2813 11.1609 11.3345 11.5167 12.4122 11.5167C13.493 11.5167 14.5489 11.159 15.4094 10.506C17.778 11.4272 19.3547 13.7242 19.3547 16.2883V19.0824Z" fill="#889199"/>
<path id="Vector_2" d="M12.4115 9.19031C14.9547 9.19031 17.0241 7.12905 17.0241 4.59515C17.0241 2.06126 14.9551 0 12.4115 0C9.86832 0 7.79932 2.06126 7.79932 4.59515C7.79932 7.12905 9.8687 9.19031 12.4115 9.19031ZM12.4115 0.774181C14.5281 0.774181 16.2499 2.48822 16.2499 4.59515C16.2499 6.70209 14.5281 8.41612 12.4115 8.41612C10.2953 8.41612 8.5735 6.70209 8.5735 4.59515C8.5735 2.48822 10.2953 0.774181 12.4115 0.774181Z" fill="#889199"/>
<path id="Vector_3" d="M7.10957 16.8888C6.67177 16.4529 6.095 16.2129 5.4865 16.2129C4.87799 16.2129 4.30123 16.4529 3.86343 16.8888C3.42524 17.325 3.18408 17.8998 3.18408 18.508C3.18408 19.1153 3.42563 19.6905 3.86343 20.1268C4.30123 20.5626 4.8776 20.8026 5.4865 20.8026C6.09539 20.8026 6.67177 20.5626 7.10957 20.1268C7.54775 19.6905 7.78891 19.1157 7.78891 18.508C7.78891 17.9122 7.54892 17.3386 7.11305 16.8926C7.11228 16.8915 7.11112 16.8903 7.10957 16.8888ZM6.56338 19.5775C5.98004 20.1589 4.99334 20.1593 4.40961 19.5775C4.11852 19.2876 3.95788 18.9078 3.95788 18.5076C3.95788 18.1073 4.11813 17.7272 4.40961 17.4373C4.70148 17.1466 5.08392 16.9867 5.4865 16.9867C5.8883 16.9867 6.26997 17.1458 6.56145 17.4353C6.8537 17.7349 7.01473 18.1158 7.01473 18.5076C7.01512 18.9078 6.85447 19.2876 6.56338 19.5775Z" fill="#889199"/>
</g>
</svg>
