<svg width="25" height="26" viewBox="0 0 25 26" fill="none" xmlns="http://www.w3.org/2000/svg">
<g id="Group 11">
<path id="Vector" d="M11.8289 24.0023L11.8289 24.0022H11.8163H4.39411H4.39392C4.18331 24.0022 3.97651 23.946 3.79496 23.8392C3.6134 23.7325 3.46368 23.5792 3.36129 23.3951C3.25891 23.2111 3.2076 23.003 3.21266 22.7924C3.21772 22.5819 3.27897 22.3765 3.39008 22.1976L3.39034 22.1972L3.89155 21.3892L4.27735 20.7673L3.80118 20.2115C2.74244 18.9757 1.96817 17.5223 1.53315 15.9542C1.09812 14.3861 1.01297 12.7416 1.28371 11.137L1.28402 11.1351C1.64669 8.9612 2.65833 6.94776 4.1861 5.35921C5.71386 3.77066 7.68633 2.68127 9.84448 2.23411L9.84766 2.23344C11.505 1.8844 13.2205 1.92237 14.8608 2.34438C16.5011 2.7664 18.0219 3.56108 19.305 4.66664C20.5881 5.7722 21.5989 7.15883 22.2588 8.7187C22.9177 10.2765 23.209 11.965 23.11 13.6535C22.9011 16.4894 21.6185 19.1389 19.5235 21.0619C17.4269 22.9864 14.6747 24.0381 11.8289 24.0023Z" stroke="#306386" stroke-width="2"/>
<line id="Line 1" x1="12.0371" y1="10.7236" x2="12.0371" y2="17.4502" stroke="#D2398D" stroke-width="2" stroke-linecap="round"/>
<circle id="Ellipse 1" cx="11.7348" cy="7.8002" r="1.2006" fill="#D2398D"/>
</g>
</svg>
