<svg width="41" height="40" viewBox="0 0 41 40" fill="none" xmlns="http://www.w3.org/2000/svg">
<g id="home(2) 1" clip-path="url(#clip0_1283_8931)">
<g id="InterfaceIcon">
<g id="01.Home">
<path id="Vector" d="M20.1289 0C9.08281 0 0.128906 8.95391 0.128906 20C0.128906 31.0461 9.08281 40 20.1289 40C31.1742 40 40.1289 31.0461 40.1289 20C40.1289 8.95391 31.175 0 20.1289 0ZM30.2352 20.6078H29.4117V28.993C29.4117 29.8773 28.6945 30.5953 27.8094 30.5953H23.2188V25.1797C23.2188 24.3266 22.8727 23.5539 22.3133 22.9945C21.7547 22.4359 20.982 22.0898 20.1289 22.0898C18.4227 22.0898 17.0391 23.4727 17.0391 25.1797V30.5953H12.4484C11.5633 30.5953 10.8461 29.8773 10.8461 28.993V20.6078H10.0227C8.51953 20.6078 7.83672 18.7297 8.98906 17.7641L18.0703 10.1531C19.2617 9.15547 20.9961 9.15547 22.1875 10.1531L31.2687 17.7641C32.4211 18.7297 31.7383 20.6078 30.2352 20.6078Z" fill="#D2398D"/>
</g>
</g>
</g>
<defs>
<clipPath id="clip0_1283_8931">
<rect width="40" height="40" fill="white" transform="translate(0.128906)"/>
</clipPath>
</defs>
</svg>
