<svg width="40" height="40" viewBox="0 0 40 40" fill="none" xmlns="http://www.w3.org/2000/svg">
<g clip-path="url(#clip0_1211_13478)">
<path d="M20 0C8.95391 0 0 8.95391 0 20C0 31.0461 8.95391 40 20 40C31.0453 40 40 31.0461 40 20C40 8.95391 31.0461 0 20 0ZM30.1062 20.6078H29.2828V28.993C29.2828 29.8773 28.5656 30.5953 27.6805 30.5953H23.0898V25.1797C23.0898 24.3266 22.7437 23.5539 22.1844 22.9945C21.6258 22.4359 20.8531 22.0898 20 22.0898C18.2938 22.0898 16.9102 23.4727 16.9102 25.1797V30.5953H12.3195C11.4344 30.5953 10.7172 29.8773 10.7172 28.993V20.6078H9.89375C8.39062 20.6078 7.70781 18.7297 8.86016 17.7641L17.9414 10.1531C19.1328 9.15547 20.8672 9.15547 22.0586 10.1531L31.1398 17.7641C32.2922 18.7297 31.6094 20.6078 30.1062 20.6078Z" fill="#306386"/>
</g>
<defs>
<clipPath id="clip0_1211_13478">
<rect width="40" height="40" fill="white"/>
</clipPath>
</defs>
</svg>
