<svg width="24" height="24" viewBox="0 0 24 24" fill="none" xmlns="http://www.w3.org/2000/svg">
<path d="M23.2015 5.94297C22.7224 5.44106 22.0608 5.14449 21.308 5.14449H17.5209V5.09886C17.5209 4.52852 17.2928 3.98099 16.9049 3.61597C16.5171 3.22814 15.9924 3 15.4221 3H8.57795C7.98479 3 7.46008 3.22814 7.07224 3.61597C6.68441 4.0038 6.45627 4.52852 6.45627 5.09886V5.14449H2.69202C1.93916 5.14449 1.27757 5.44106 0.798479 5.94297C0.319392 6.42205 0 7.10646 0 7.8365V19.1977C0 19.9506 0.296578 20.6122 0.798479 21.0913C1.27757 21.5703 1.96198 21.8897 2.69202 21.8897H21.308C22.0608 21.8897 22.7224 21.5932 23.2015 21.0913C23.6806 20.6122 24 19.9278 24 19.1977V7.8365C24 7.08365 23.7034 6.42205 23.2015 5.94297ZM22.8137 19.1977H22.7909C22.7909 19.6084 22.6312 19.9734 22.3574 20.2472C22.0837 20.5209 21.7186 20.6806 21.308 20.6806H2.69202C2.28137 20.6806 1.91635 20.5209 1.64259 20.2472C1.36882 19.9734 1.20913 19.6084 1.20913 19.1977V7.8365C1.20913 7.42586 1.36882 7.06084 1.64259 6.78707C1.91635 6.51331 2.28137 6.35361 2.69202 6.35361H7.09506C7.43726 6.35361 7.71103 6.07985 7.71103 5.73764V5.07605C7.71103 4.8251 7.80228 4.59696 7.96198 4.43726C8.12167 4.27757 8.34981 4.18631 8.60076 4.18631H15.4221C15.673 4.18631 15.9011 4.27757 16.0608 4.43726C16.2205 4.59696 16.3118 4.8251 16.3118 5.07605V5.73764C16.3118 6.07985 16.5856 6.35361 16.9278 6.35361H21.3308C21.7414 6.35361 22.1065 6.51331 22.3802 6.78707C22.654 7.06084 22.8137 7.42586 22.8137 7.8365V19.1977Z" fill="#306386"/>
<path d="M11.9999 7.90527C10.4485 7.90527 9.03408 8.54406 8.03028 9.54786C7.00367 10.5745 6.3877 11.9661 6.3877 13.5174C6.3877 15.0688 7.02648 16.4832 8.03028 17.487C9.0569 18.5136 10.4485 19.1296 11.9999 19.1296C13.5512 19.1296 14.9656 18.4908 15.9694 17.487C16.9961 16.4604 17.612 15.0688 17.612 13.5174C17.612 11.9661 16.9732 10.5517 15.9694 9.54786C14.9656 8.54406 13.5512 7.90527 11.9999 7.90527ZM15.1025 16.6429C14.304 17.4186 13.209 17.9205 11.9999 17.9205C10.7907 17.9205 9.69568 17.4186 8.8972 16.6429C8.09872 15.8444 7.61963 14.7494 7.61963 13.5403C7.61963 12.3311 8.12154 11.2361 8.8972 10.4376C9.69568 9.63911 10.7907 9.16003 11.9999 9.16003C13.209 9.16003 14.304 9.66193 15.1025 10.4376C15.901 11.2361 16.3801 12.3311 16.3801 13.5403C16.4029 14.7494 15.901 15.8444 15.1025 16.6429Z" fill="#D2398D"/>
<path d="M20.1218 10.1176C20.7392 10.1176 21.2396 9.61709 21.2396 8.99971C21.2396 8.38232 20.7392 7.88184 20.1218 7.88184C19.5044 7.88184 19.0039 8.38232 19.0039 8.99971C19.0039 9.61709 19.5044 10.1176 20.1218 10.1176Z" fill="#306386"/>
</svg>
