<svg width="24" height="24" viewBox="0 0 24 24" fill="none" xmlns="http://www.w3.org/2000/svg">
<g clip-path="url(#clip0_1211_13571)">
<path d="M11.6937 23.5051H11.6874H4.2652H4.26511C3.96536 23.5052 3.67104 23.4251 3.41264 23.2732L3.15924 23.7042L3.41264 23.2732C3.15424 23.1213 2.94115 22.9031 2.79544 22.6411C2.64973 22.3792 2.57669 22.083 2.5839 21.7834C2.5911 21.4837 2.67828 21.1914 2.83641 20.9368L2.83654 20.9366L3.33775 20.1286L3.53065 19.8176L3.29257 19.5397C2.18616 18.2483 1.37704 16.7295 0.922437 15.0908C0.467831 13.4521 0.378845 11.7336 0.661774 10.0567L0.661926 10.0558C1.0412 7.78237 2.09913 5.67679 3.69681 4.01555C5.29449 2.3543 7.35722 1.21507 9.61413 0.747435L9.61572 0.747099C11.3483 0.382216 13.1417 0.421906 14.8565 0.863082C16.5712 1.30426 18.1611 2.13503 19.5025 3.29079C20.8438 4.44654 21.9005 5.89613 22.5904 7.52683C23.2797 9.15646 23.5842 10.9231 23.48 12.6894C23.2626 15.6536 21.9224 18.4232 19.7327 20.4332C17.5422 22.4439 14.6669 23.5426 11.6937 23.5052V23.5051Z" stroke="#306386"/>
<line x1="11.5332" y1="9.35156" x2="11.5332" y2="16.8282" stroke="#D2398D" stroke-width="1.25" stroke-linecap="round"/>
<circle cx="11.59" cy="7.22669" r="0.681767" fill="#D2398D"/>
</g>
<defs>
<clipPath id="clip0_1211_13571">
<rect width="24" height="24" fill="white"/>
</clipPath>
</defs>
</svg>
