<svg width="16" height="16" viewBox="0 0 16 16" fill="none" xmlns="http://www.w3.org/2000/svg">
<path fill-rule="evenodd" clip-rule="evenodd" d="M1.25455 5.81665C1.53152 6.16028 1.79607 6.53427 2.00655 6.9135C2.26559 7.38023 2.44214 7.85634 2.47635 8.29712C3.57263 9.01998 3.64435 9.60953 3.75442 10.2325C3.84904 10.7685 3.98394 11.3296 5.11856 12.0864C5.18201 12.1286 5.22504 12.1954 5.23746 12.2708C5.35746 12.9906 5.52794 13.175 5.76794 13.3847C6.02036 13.6061 6.3285 13.8531 6.68988 14.5696C6.71498 14.5335 6.73981 14.4948 6.76353 14.4543C6.84326 14.3174 6.91388 14.1584 6.89788 14C6.88491 13.8713 6.96271 13.751 7.08519 13.7102C7.42367 13.5973 7.8474 13.5274 8.27581 13.5319V14.0828C7.98367 14.0786 7.69374 14.1162 7.4416 14.1805C7.41512 14.3745 7.33788 14.5649 7.23995 14.7325C7.05595 15.0482 6.80877 15.2781 6.80877 15.2781C6.74312 15.3394 6.65153 15.3648 6.56381 15.346C6.47581 15.3276 6.40243 15.2674 6.36712 15.1849C5.98118 14.2842 5.66174 14.0254 5.40436 13.8004C5.10615 13.539 4.87056 13.3177 4.71415 12.4792C3.45732 11.6128 3.32049 10.9495 3.21097 10.3285C3.118 9.80108 3.0529 9.30647 2.06062 8.68601C1.98007 8.6355 1.93097 8.54718 1.93097 8.45196C1.93097 8.05175 1.76434 7.61373 1.52434 7.18178C1.33814 6.84615 1.10641 6.5155 0.862549 6.20886L1.25455 5.81665Z" fill="#306386"/>
<path fill-rule="evenodd" clip-rule="evenodd" d="M14.4828 9.20692C14.7512 9.23259 14.9454 9.16718 15.1178 9.16332C15.3959 9.15724 15.6516 9.22597 15.9537 9.67917C15.984 9.72471 16 9.77798 16 9.83235C16 10.325 15.9007 10.6206 15.8022 10.8572C15.6949 11.1147 15.5757 11.2745 15.7101 11.6772C15.7484 11.7926 15.7068 11.9198 15.6072 11.9899C14.4991 12.7713 12.456 13.4204 11.3104 13.4204C11.0676 13.4204 10.8913 13.4649 10.7606 13.548C10.5641 13.6727 10.4775 13.8764 10.4 14.0809C10.3264 14.2752 10.2646 14.4742 10.1777 14.6478C10.1338 14.7359 10.0464 14.7938 9.94814 14.7999C9.84994 14.806 9.75614 14.7593 9.70152 14.6776C9.51835 14.4027 9.22125 14.2446 8.89159 14.1604C8.60635 14.0873 8.296 14.0696 8 14.0911V13.5394C8.34235 13.5181 8.69931 13.5413 9.02842 13.6255C9.33021 13.7028 9.60856 13.8306 9.83725 14.0172C9.87725 13.9051 9.9178 13.7919 9.96773 13.6843C10.0706 13.4618 10.2083 13.2606 10.4193 13.1124C10.6262 12.967 10.9068 12.8684 11.3104 12.8684C12.3184 12.8684 14.0751 12.3219 15.1286 11.6468C15.0428 11.2695 15.1206 11.0468 15.2293 10.7931C15.3167 10.5889 15.4337 10.3576 15.4469 9.91681C15.3766 9.82076 15.3159 9.76225 15.2502 9.73382C15.1901 9.70788 15.1294 9.71312 15.0632 9.71947C14.9879 9.72692 14.9079 9.73962 14.8202 9.749C14.7181 9.76004 14.6069 9.76722 14.4828 9.76059V9.20692Z" fill="#306386"/>
<path fill-rule="evenodd" clip-rule="evenodd" d="M4.83363 1.26367C6.74702 2.09638 7.57957 2.92854 8.39309 3.76125C9.20771 3.77975 9.63033 3.99089 9.98537 4.16864C10.2745 4.31327 10.5048 4.43581 10.9674 4.32017C11.0499 4.29947 11.1374 4.31796 11.2041 4.3704C11.2712 4.42256 11.3103 4.50288 11.3103 4.58789C11.3103 5.53101 12.2612 5.99718 12.2612 5.99718C12.3548 6.04382 12.4138 6.13932 12.4138 6.24393C12.4138 6.75426 12.4927 7.06946 12.6284 7.29772C12.7666 7.53067 12.9581 7.67254 13.1542 7.84504C13.4568 8.11111 13.7766 8.42962 14.0155 9.07962C14.2585 9.18588 14.4546 9.21403 14.6207 9.21265V9.76246C14.3708 9.7677 14.0665 9.72547 13.6698 9.52675C13.6044 9.49418 13.5545 9.43677 13.5313 9.36722C13.2778 8.60572 12.8913 8.35621 12.5741 8.07054C12.2041 7.7374 11.8943 7.37307 11.8645 6.4018C11.5694 6.21108 10.9294 5.71345 10.787 4.91275C10.4414 4.94863 10.1959 4.87521 9.95034 4.76454C9.57792 4.59672 9.20688 4.31189 8.27585 4.31189C8.20164 4.31189 8.13047 4.28208 8.07861 4.22881C7.27391 3.40548 6.48633 2.58188 4.58618 1.75855L4.83363 1.26367Z" fill="#306386"/>
<path fill-rule="evenodd" clip-rule="evenodd" d="M0.998025 6.38378C0.699817 5.98937 0.372368 5.62697 0.0807807 5.33523C-0.00308161 5.25133 -0.0240472 5.12298 0.0291943 5.01672L0.58092 3.9127C0.649058 3.77635 0.814576 3.72115 0.950852 3.78932C1.0612 3.84425 1.15113 3.88096 1.22644 3.9C1.27416 3.91187 1.30727 3.92318 1.3332 3.90938C1.3652 3.89227 1.37982 3.85611 1.40161 3.81968C1.43416 3.76531 1.46561 3.70404 1.50175 3.64083C1.61292 3.44597 1.75968 3.23427 2.04299 3.08136L1.43444 2.26963C1.38506 2.20394 1.36768 2.11976 1.38672 2.03972C1.40603 1.95995 1.45954 1.89261 1.5332 1.85645C2.30313 1.47749 3.12631 1.15926 4.09403 1.00359C4.14259 0.995585 4.19224 1.00111 4.23803 1.01877C4.58093 1.15263 4.89321 1.28622 5.17955 1.41981L4.81017 1.85811C4.59197 1.75902 4.35859 1.65993 4.10755 1.56085C3.35445 1.69002 2.69486 1.92517 2.07803 2.20836L2.70341 3.04245C2.75886 3.11642 2.77348 3.2133 2.74258 3.30051C2.71169 3.38746 2.63941 3.45342 2.54975 3.47578C2.10617 3.58673 2.00548 3.87544 1.89458 4.06947C1.78396 4.26322 1.65706 4.39764 1.46341 4.44622C1.34423 4.47603 1.1834 4.47216 0.958025 4.3924L0.610437 5.08738C0.855128 5.34103 1.11554 5.63553 1.36189 5.95211L0.998025 6.38378Z" fill="#306386"/>
<path d="M7.65517 8.38318C7.65517 8.38318 6.29683 8.38318 6 9.83221" stroke="#D2398D" stroke-width="2" stroke-miterlimit="10" stroke-linecap="round"/>
<path d="M7.65512 8.38303C7.65512 8.38303 6.54508 7.43633 5.17236 8.1937" stroke="#D2398D" stroke-width="2" stroke-miterlimit="10" stroke-linecap="round"/>
<path d="M7.65522 8.38293C7.65522 8.38293 7.3631 6.56589 5.82764 6.5199" stroke="#D2398D" stroke-width="2" stroke-miterlimit="10" stroke-linecap="round"/>
<path d="M7.65527 8.38318C7.65527 8.38318 9.01361 8.38318 9.31045 9.83221" stroke="#D2398D" stroke-width="2" stroke-miterlimit="10" stroke-linecap="round"/>
<path d="M7.65527 8.38303C7.65527 8.38303 8.7499 7.43633 10.1035 8.1937" stroke="#D2398D" stroke-width="2" stroke-miterlimit="10" stroke-linecap="round"/>
<path d="M7.65527 8.38293C7.65527 8.38293 7.94189 6.56589 9.44838 6.5199" stroke="#D2398D" stroke-width="2" stroke-miterlimit="10" stroke-linecap="round"/>
<path d="M7.65527 11.6607V8.38318" stroke="#D2398D" stroke-width="2" stroke-miterlimit="10" stroke-linecap="round"/>
<path d="M7.27588 5.51953H8.0345" stroke="#D2398D" stroke-width="2" stroke-miterlimit="10" stroke-linecap="round"/>
</svg>
