<svg width="24" height="24" viewBox="0 0 24 24" fill="none" xmlns="http://www.w3.org/2000/svg">
<path fill-rule="evenodd" clip-rule="evenodd" d="M8.53162 2.93677C10.7165 1.66727 13.402 1.68946 15.5664 2.99489C17.7095 4.32691 19.012 6.70418 18.9998 9.26144C18.95 11.8019 17.5533 14.19 15.8075 16.0361C14.7998 17.1064 13.6726 18.0528 12.4488 18.856C12.3228 18.9289 12.1848 18.9777 12.0415 19C11.9036 18.9941 11.7693 18.9534 11.6508 18.8814C9.78243 17.6746 8.14334 16.134 6.81233 14.334C5.69859 12.8314 5.06584 11.016 5 9.13442C4.99856 6.57225 6.34677 4.20627 8.53162 2.93677ZM9.79427 10.1948C10.1618 11.1008 11.0293 11.6918 11.9917 11.6918C12.6222 11.6964 13.2283 11.4438 13.6749 10.9905C14.1215 10.5371 14.3716 9.92063 14.3694 9.27838C14.3727 8.29803 13.7956 7.41231 12.9074 7.03477C12.0192 6.65723 10.9952 6.86234 10.3134 7.55434C9.6317 8.24634 9.42675 9.28872 9.79427 10.1948Z" fill="#B3E3FF"/>
<ellipse opacity="0.4" cx="12" cy="21" rx="5" ry="1" fill="#B3E3FF"/>
</svg>
