<svg width="27" height="24" viewBox="0 0 27 24" fill="none" xmlns="http://www.w3.org/2000/svg">
<g id="logos:google-drive" clip-path="url(#clip0_1290_12388)">
<path id="Vector" d="M2.04124 20.5454L3.23198 22.5891C3.47941 23.0194 3.83505 23.3575 4.25261 23.6033C5.44862 22.0948 6.28098 20.9371 6.75011 20.1305C7.22609 19.3118 7.81112 18.0313 8.50521 16.2889C6.63462 16.0442 5.21712 15.9219 4.25271 15.9219C3.32701 15.9219 1.90951 16.0442 0 16.2889C0 16.7652 0.123715 17.2416 0.371145 17.6719L2.04124 20.5454Z" fill="#0066DA"/>
<path id="Vector_2" d="M22.7476 23.6033C23.1653 23.3575 23.5209 23.0194 23.7682 22.5892L24.2631 21.744L26.6292 17.6719C26.872 17.2509 26.9999 16.7741 27.0002 16.2889C25.0796 16.0442 23.6648 15.9219 22.7554 15.9219C21.7781 15.9219 20.3632 16.0442 18.5105 16.2889C19.1964 18.0408 19.7737 19.3214 20.2425 20.1305C20.7153 20.9468 21.5503 22.1043 22.7476 23.6033Z" fill="#EA4335"/>
<path id="Vector_3" d="M13.5001 7.68325C14.8839 6.02264 15.8375 4.74204 16.3609 3.84168C16.7825 3.11665 17.2465 1.95899 17.7527 0.368804C17.3352 0.122935 16.8558 0 16.3609 0H10.6393C10.1444 0 9.66515 0.138341 9.2475 0.368804C9.89149 2.19259 10.438 3.49059 10.8869 4.26267C11.383 5.11598 12.2541 6.25614 13.5001 7.68325Z" fill="#00832D"/>
<path id="Vector_4" d="M18.495 16.2881H8.50519L4.25269 23.6025C4.67013 23.8484 5.14949 23.9713 5.64435 23.9713H21.3558C21.8507 23.9713 22.3301 23.833 22.7476 23.6024L18.4951 16.2881H18.495Z" fill="#2684FC"/>
<path id="Vector_5" d="M13.5001 7.68348L9.24761 0.369141C8.82995 0.61501 8.47431 0.953001 8.22688 1.38332L0.371145 14.9058C0.128263 15.3268 0.000320886 15.8035 0 16.2888H8.50521L13.5001 7.68348Z" fill="#00AC47"/>
<path id="Vector_6" d="M22.7013 8.14462L18.7733 1.38332C18.526 0.953001 18.1702 0.61501 17.7527 0.369141L13.5002 7.68359L18.495 16.2889H26.9848C26.9848 15.8125 26.8611 15.3362 26.6136 14.9059L22.7013 8.14462Z" fill="#FFBA00"/>
</g>
<defs>
<clipPath id="clip0_1290_12388">
<rect width="27" height="24" fill="white"/>
</clipPath>
</defs>
</svg>
