<svg width="40" height="40" viewBox="0 0 40 40" fill="none" xmlns="http://www.w3.org/2000/svg">
<path d="M39.9729 4.42057C40.1679 3.51284 39.2779 2.74746 38.4098 3.0787L0.753902 17.4536C0.300703 17.6266 0.000939697 18.061 2.20527e-06 18.5461C-0.000935287 19.0312 0.297109 19.4668 0.749683 19.6415L11.3279 23.727V36.5951C11.3279 37.1379 11.7007 37.6096 12.2288 37.7352C12.7534 37.86 13.3004 37.6104 13.5464 37.1225L17.9214 28.4407L28.5982 36.3643C29.2476 36.8463 30.1811 36.5397 30.4175 35.7651C40.3861 3.08128 39.9551 4.50268 39.9729 4.42057ZM30.6775 8.53912L12.3337 21.603L4.44098 18.5547L30.6775 8.53912ZM13.6717 23.5274L29.6612 12.1403C15.9024 26.655 16.621 25.891 16.561 25.9718C16.4719 26.0917 16.7161 25.6243 13.6717 31.6656V23.5274ZM28.6605 33.4919L19.2624 26.5173L36.2553 8.59069L28.6605 33.4919Z" fill="#306386"/>
</svg>
