<svg width="26" height="24" viewBox="0 0 26 24" fill="none" xmlns="http://www.w3.org/2000/svg">
<g id="Group">
<path id="Vector" d="M25.1435 19.9355V2.70194C25.1435 1.21161 24.0575 0 22.7217 0H9.17619C7.84037 0 6.75437 1.21161 6.75437 2.70194V7.35484H3.10429C1.86563 7.35484 0.855957 8.48129 0.855957 9.86322V19.9355C0.855957 22.1768 2.49016 24 4.4991 24H21.5004C23.5093 24 25.1435 22.1768 25.1435 19.9355ZM6.75437 19.9355C6.75437 21.3213 5.74123 22.4516 4.4991 22.4516C3.25696 22.4516 2.24382 21.3213 2.24382 19.9355V9.86322C2.24382 9.3329 2.62895 8.90323 3.10429 8.90323H6.75437V19.9355ZM8.14223 19.9355V2.70194C8.14223 2.0671 8.60717 1.54839 9.17619 1.54839H22.7217C23.2907 1.54839 23.7557 2.0671 23.7557 2.70194V19.9355C23.7557 21.3213 22.7425 22.4516 21.5004 22.4516H7.35809C7.85078 21.7587 8.14223 20.8839 8.14223 19.9355Z" fill="#306386"/>
<path id="Vector_2" d="M20.286 4.64453H11.6119C11.2302 4.64453 10.918 4.99292 10.918 5.41872V10.0639C10.918 10.4897 11.2302 10.8381 11.6119 10.8381H20.286C20.6677 10.8381 20.98 10.4897 20.98 10.0639V5.41872C20.98 4.99292 20.6677 4.64453 20.286 4.64453ZM19.5921 9.28969H12.3058V6.19292H19.5921V9.28969Z" fill="#D2398D"/>
<path id="Vector_3" d="M20.286 12.7744H11.6119C11.2302 12.7744 10.918 13.1228 10.918 13.5486C10.918 13.9744 11.2302 14.3228 11.6119 14.3228H20.286C20.6677 14.3228 20.98 13.9744 20.98 13.5486C20.98 13.1228 20.6677 12.7744 20.286 12.7744Z" fill="#306386"/>
<path id="Vector_4" d="M20.286 16.2578H11.6119C11.2302 16.2578 10.918 16.6062 10.918 17.032C10.918 17.4578 11.2302 17.8062 11.6119 17.8062H20.286C20.6677 17.8062 20.98 17.4578 20.98 17.032C20.98 16.6062 20.6677 16.2578 20.286 16.2578Z" fill="#306386"/>
</g>
</svg>
