<svg width="24" height="24" viewBox="0 0 24 24" fill="none" xmlns="http://www.w3.org/2000/svg">
<g id="&#216;&#167;&#217;&#132;&#216;&#170;&#217;&#130;&#216;&#167;&#216;&#177;&#217;&#138;&#216;&#177;" clip-path="url(#clip0_1211_13710)">
<g id="Mask group">
<mask id="mask0_1211_13710" style="mask-type:luminance" maskUnits="userSpaceOnUse" x="0" y="0" width="24" height="24">
<g id="Group">
<path id="bg" d="M24 0H0V24H24V0Z" fill="white"/>
</g>
</mask>
<g mask="url(#mask0_1211_13710)">
<g id="Group_2">
<g id="g2802">
<g id="g2804">
<g id="Clip path group">
<mask id="mask1_1211_13710" style="mask-type:luminance" maskUnits="userSpaceOnUse" x="0" y="0" width="24" height="24">
<g id="clipPath2810">
<path id="path2808" d="M0 1.90735e-06H24V24H0V1.90735e-06Z" fill="white"/>
</g>
</mask>
<g mask="url(#mask1_1211_13710)">
<g id="g2806">
<g id="g2812">
<path id="path2814" d="M15.6876 2.78437H18.9066C19.6833 2.78437 20.3129 3.41395 20.3129 4.19062V21.6562C20.3129 22.4329 19.6833 23.0625 18.9066 23.0625H5.09375C4.31712 23.0625 3.6875 22.4329 3.6875 21.6562V4.19062C3.6875 3.41395 4.31712 2.78437 5.09375 2.78437H8.31251" stroke="#306386" stroke-width="1.3" stroke-miterlimit="10" stroke-linecap="round" stroke-linejoin="round"/>
</g>
<path id="path2816" d="M15.6878 4.63086H8.3125V0.93711H15.6878V4.63086Z" stroke="#306386" stroke-width="1.3" stroke-miterlimit="10" stroke-linecap="round" stroke-linejoin="round"/>
</g>
</g>
</g>
</g>
<g id="g2822">
<g id="Clip path group_2">
<mask id="mask2_1211_13710" style="mask-type:luminance" maskUnits="userSpaceOnUse" x="0" y="0" width="24" height="24">
<g id="clipPath2828">
<path id="path2826" d="M0 1.90735e-06H24V24H0V1.90735e-06Z" fill="white"/>
</g>
</mask>
<g mask="url(#mask2_1211_13710)">
<g id="g2824">
<g id="g2830">
<path id="path2832" d="M8.31299 16.9257L10.7613 19.374L15.688 14.4474" stroke="#D2398D" stroke-width="1.3" stroke-miterlimit="10" stroke-linecap="round" stroke-linejoin="round"/>
</g>
</g>
</g>
</g>
</g>
</g>
</g>
</g>
</g>
</g>
<defs>
<clipPath id="clip0_1211_13710">
<rect width="24" height="24" fill="white"/>
</clipPath>
</defs>
</svg>
