<svg width="80" height="80" viewBox="0 0 80 80" fill="none" xmlns="http://www.w3.org/2000/svg">
<rect width="80" height="80" rx="16" fill="#E2F4FE"/>
<path d="M20.6108 40.2798C20.6108 40.4876 20.6739 40.6907 20.7921 40.8635C20.9102 41.0363 21.0781 41.1709 21.2746 41.2504C21.4711 41.33 21.6873 41.3508 21.8959 41.3102C22.1045 41.2697 22.2961 41.1696 22.4464 41.0227C22.5968 40.8758 22.6992 40.6885 22.7407 40.4847C22.7822 40.2809 22.7609 40.0697 22.6795 39.8777C22.5981 39.6857 22.4603 39.5216 22.2835 39.4062C22.1067 39.2907 21.8988 39.2291 21.6861 39.2291C21.4009 39.2291 21.1274 39.3398 20.9258 39.5368C20.7241 39.7339 20.6108 40.0011 20.6108 40.2798ZM16.3098 50.8726V20.1237C15.5924 19.8759 14.9877 19.3882 14.6027 18.7469C14.2176 18.1055 14.077 17.3518 14.2057 16.619C14.3344 15.8862 14.7241 15.2214 15.3059 14.7421C15.8876 14.2629 16.6241 14 17.385 14C18.146 14 18.8825 14.2629 19.4642 14.7421C20.046 15.2214 20.4357 15.8862 20.5644 16.619C20.6931 17.3518 20.5525 18.1055 20.1674 18.7469C19.7824 19.3882 19.1777 19.8759 18.4603 20.1237V34.3498C19.3652 33.2495 20.5112 32.3615 21.8138 31.7513C23.1164 31.1411 24.5426 30.8241 25.9872 30.8237H53.944C56.5097 30.8268 58.9693 31.824 60.7835 33.5967C62.5977 35.3694 63.6183 37.7728 63.6214 40.2798V50.8726C65.5419 51.9523 66.9707 53.7048 67.6185 55.7753C68.2662 57.8457 68.0844 60.0793 67.1099 62.0237C66.1354 63.9681 64.4411 65.478 62.3701 66.2475C60.299 67.017 58.0061 66.9886 55.9557 66.1682C53.9052 65.3477 52.2505 63.7965 51.3267 61.8286C50.4028 59.8608 50.2789 57.6234 50.98 55.5696C51.6811 53.5159 53.1549 51.7992 55.1027 50.7673C57.0506 49.7354 59.327 49.4655 61.4709 50.0121V46.5838H36.371C35.6648 46.5857 34.9652 46.4508 34.3128 46.1867C33.6603 45.9227 33.0679 45.5348 32.5699 45.0456L29.7119 42.2529C29.1056 41.6641 28.2861 41.3326 27.4312 41.3304H25.9872C25.702 41.3304 25.4285 41.2197 25.2268 41.0227C25.0252 40.8257 24.9119 40.5584 24.9119 40.2798C24.9119 40.0011 25.0252 39.7339 25.2268 39.5368C25.4285 39.3398 25.702 39.2291 25.9872 39.2291H27.4312C28.1374 39.2271 28.837 39.3621 29.4895 39.6261C30.1419 39.8902 30.7343 40.278 31.2323 40.7673L34.0904 43.5599C34.6967 44.1488 35.5162 44.4802 36.371 44.4824H61.4709V42.3811H58.2451C57.3896 42.3811 56.5691 42.049 55.9641 41.4579C55.3592 40.8668 55.0193 40.0651 55.0193 39.2291C55.0193 38.3931 55.3592 37.5914 55.9641 37.0003C56.5691 36.4092 57.3896 36.0771 58.2451 36.0771H60.1118C59.4199 35.1048 58.4977 34.3104 57.4237 33.7615C56.3498 33.2127 55.156 32.9257 53.944 32.9251H25.9872C23.9916 32.9273 22.0785 33.7029 20.6674 35.0817C19.2563 36.4605 18.4626 38.3299 18.4603 40.2798V50.0121C19.6426 49.7076 20.8779 49.654 22.0831 49.8552C23.2883 50.0563 24.4354 50.5074 25.4472 51.1781C26.459 51.8488 27.312 52.7235 27.9487 53.7433C28.5855 54.7632 28.9913 55.9045 29.1388 57.0905H47.4925C47.7776 57.0905 48.0511 57.2011 48.2528 57.3982C48.4544 57.5952 48.5677 57.8625 48.5677 58.1411C48.5677 58.4198 48.4544 58.687 48.2528 58.8841C48.0511 59.0811 47.7776 59.1918 47.4925 59.1918H29.1388C28.9583 60.6128 28.4093 61.9652 27.5439 63.1207C26.6785 64.2762 25.5253 65.1966 24.1937 65.7944C22.8621 66.3923 21.3963 66.6478 19.9353 66.5368C18.4743 66.4258 17.0665 65.9519 15.8455 65.1602C14.6245 64.3684 13.6308 63.2849 12.9585 62.0126C12.2863 60.7402 11.9578 59.3212 12.0043 57.89C12.0508 56.4588 12.4708 55.063 13.2243 53.8349C13.9777 52.6068 15.0398 51.5871 16.3098 50.8726ZM59.3204 51.8371C58.0444 51.8371 56.797 52.2068 55.7361 52.8995C54.6751 53.5922 53.8482 54.5768 53.3599 55.7287C52.8716 56.8806 52.7438 58.1481 52.9927 59.371C53.2417 60.5938 53.8561 61.7171 54.7584 62.5987C55.6607 63.4804 56.8102 64.0808 58.0617 64.324C59.3132 64.5672 60.6104 64.4424 61.7893 63.9653C62.9681 63.4881 63.9758 62.6801 64.6847 61.6434C65.3936 60.6067 65.7719 59.3879 65.7719 58.1411C65.7702 56.4697 65.09 54.8672 63.8804 53.6854C62.6709 52.5035 61.0309 51.8388 59.3204 51.8371ZM58.2451 38.1784C57.9599 38.1784 57.6864 38.2891 57.4848 38.4862C57.2831 38.6832 57.1698 38.9504 57.1698 39.2291C57.1698 39.5077 57.2831 39.775 57.4848 39.972C57.6864 40.1691 57.9599 40.2798 58.2451 40.2798H61.4709C61.4687 39.5677 61.36 38.8598 61.1483 38.1784H58.2451ZM16.3098 17.1651C16.3098 17.3729 16.3728 17.576 16.491 17.7488C16.6092 17.9216 16.7771 18.0562 16.9736 18.1358C17.17 18.2153 17.3862 18.2361 17.5948 18.1955C17.8034 18.155 17.995 18.0549 18.1454 17.908C18.2958 17.7611 18.3982 17.5738 18.4397 17.37C18.4811 17.1662 18.4598 16.955 18.3785 16.763C18.2971 16.571 18.1593 16.4069 17.9824 16.2915C17.8056 16.176 17.5977 16.1144 17.385 16.1144C17.0999 16.1144 16.8264 16.2251 16.6247 16.4221C16.4231 16.6192 16.3098 16.8864 16.3098 17.1651ZM14.1593 58.1411C14.1593 59.3879 14.5376 60.6067 15.2465 61.6434C15.9555 62.6801 16.9631 63.4881 18.1419 63.9653C19.3208 64.4424 20.618 64.5672 21.8695 64.324C23.121 64.0808 24.2705 63.4804 25.1728 62.5987C26.0751 61.7171 26.6895 60.5938 26.9385 59.371C27.1874 58.1481 27.0596 56.8806 26.5713 55.7287C26.083 54.5768 25.2561 53.5922 24.1952 52.8995C23.1342 52.2068 21.8868 51.8371 20.6108 51.8371C18.9003 51.8388 17.2603 52.5035 16.0508 53.6854C14.8412 54.8672 14.161 56.4697 14.1593 58.1411ZM16.3098 58.1411C16.3098 57.3099 16.562 56.4974 17.0346 55.8062C17.5072 55.1151 18.179 54.5764 18.9649 54.2584C19.7508 53.9403 20.6156 53.857 21.4499 54.0192C22.2843 54.1814 23.0506 54.5816 23.6521 55.1694C24.2537 55.7571 24.6633 56.506 24.8293 57.3212C24.9952 58.1365 24.91 58.9815 24.5845 59.7494C24.259 60.5174 23.7077 61.1737 23.0004 61.6355C22.2931 62.0973 21.4615 62.3438 20.6108 62.3438C19.4701 62.3438 18.3761 61.901 17.5695 61.1129C16.7629 60.3247 16.3098 59.2557 16.3098 58.1411ZM18.4603 58.1411C18.4603 58.5567 18.5864 58.963 18.8227 59.3086C19.059 59.6541 19.3949 59.9235 19.7879 60.0825C20.1808 60.2415 20.6132 60.2832 21.0304 60.2021C21.4476 60.121 21.8307 59.9209 22.1315 59.627C22.4323 59.3331 22.6371 58.9587 22.72 58.5511C22.803 58.1435 22.7604 57.7209 22.5977 57.337C22.4349 56.953 22.1593 56.6248 21.8056 56.3939C21.452 56.163 21.0362 56.0398 20.6108 56.0398C20.0405 56.0398 19.4935 56.2612 19.0902 56.6552C18.6869 57.0493 18.4603 57.5838 18.4603 58.1411ZM59.3204 53.9384C60.171 53.9384 61.0026 54.1849 61.7099 54.6467C62.4172 55.1085 62.9685 55.7649 63.294 56.5328C63.6196 57.3008 63.7047 58.1458 63.5388 58.961C63.3728 59.7763 62.9632 60.5251 62.3617 61.1129C61.7602 61.7006 60.9938 62.1009 60.1595 62.263C59.3251 62.4252 58.4603 62.342 57.6744 62.0239C56.8885 61.7058 56.2168 61.1671 55.7442 60.476C55.2716 59.7849 55.0193 58.9723 55.0193 58.1411C55.0193 57.0265 55.4724 55.9575 56.2791 55.1694C57.0857 54.3812 58.1796 53.9384 59.3204 53.9384ZM59.3204 56.0398C58.895 56.0398 58.4792 56.163 58.1256 56.3939C57.7719 56.6248 57.4963 56.953 57.3335 57.337C57.1708 57.7209 57.1282 58.1435 57.2112 58.5511C57.2941 58.9587 57.499 59.3331 57.7997 59.627C58.1005 59.9209 58.4837 60.121 58.9008 60.2021C59.318 60.2832 59.7504 60.2415 60.1433 60.0825C60.5363 59.9235 60.8722 59.6541 61.1085 59.3086C61.3448 58.963 61.4709 58.5567 61.4709 58.1411C61.4709 57.5838 61.2443 57.0493 60.841 56.6552C60.4377 56.2612 59.8907 56.0398 59.3204 56.0398Z" fill="#306386"/>
</svg>
