<svg width="48" height="48" viewBox="0 0 48 48" fill="none" xmlns="http://www.w3.org/2000/svg">
<g filter="url(#filter0_d_1680_272)">
<rect x="4" width="40" height="40" rx="4" fill="white"/>
<path d="M37.4167 27.2564C37.4167 27.9668 36.8406 28.5416 36.1315 28.5416H25.7852C25.4444 28.5416 25.1175 28.4062 24.8765 28.1652C24.6354 27.9241 24.5 27.5972 24.5 27.2564C24.5 26.9155 24.6354 26.5886 24.8765 26.3476C25.1175 26.1066 25.4444 25.9712 25.7852 25.9712H36.1315C36.8419 25.9712 37.4167 26.546 37.4167 27.2564ZM37.4167 19.4999C37.4167 20.2103 36.8406 20.7851 36.1315 20.7851H12.8686C12.5277 20.7851 12.2008 20.6497 11.9598 20.4087C11.7188 20.1677 11.5834 19.8408 11.5834 19.4999C11.5834 19.1591 11.7188 18.8322 11.9598 18.5911C12.2008 18.3501 12.5277 18.2147 12.8686 18.2147H36.1315C36.8419 18.2147 37.4167 18.7908 37.4167 19.4999ZM36.1315 13.0287C36.4724 13.0287 36.7993 12.8933 37.0403 12.6522C37.2813 12.4112 37.4167 12.0843 37.4167 11.7435C37.4167 11.4026 37.2813 11.0757 37.0403 10.8347C36.7993 10.5937 36.4724 10.4583 36.1315 10.4583H20.6186C20.4498 10.4583 20.2827 10.4915 20.1268 10.5561C19.9708 10.6207 19.8291 10.7153 19.7098 10.8347C19.5905 10.954 19.4958 11.0957 19.4312 11.2516C19.3666 11.4076 19.3334 11.5747 19.3334 11.7435C19.3334 11.9122 19.3666 12.0794 19.4312 12.2353C19.4958 12.3912 19.5905 12.5329 19.7098 12.6522C19.8291 12.7716 19.9708 12.8663 20.1268 12.9308C20.2827 12.9954 20.4498 13.0287 20.6186 13.0287H36.1315Z" fill="#D2398D"/>
</g>
<defs>
<filter id="filter0_d_1680_272" x="0" y="0" width="48" height="48" filterUnits="userSpaceOnUse" color-interpolation-filters="sRGB">
<feFlood flood-opacity="0" result="BackgroundImageFix"/>
<feColorMatrix in="SourceAlpha" type="matrix" values="0 0 0 0 0 0 0 0 0 0 0 0 0 0 0 0 0 0 127 0" result="hardAlpha"/>
<feOffset dy="4"/>
<feGaussianBlur stdDeviation="2"/>
<feComposite in2="hardAlpha" operator="out"/>
<feColorMatrix type="matrix" values="0 0 0 0 0.6375 0 0 0 0 0.6375 0 0 0 0 0.6375 0 0 0 0.25 0"/>
<feBlend mode="normal" in2="BackgroundImageFix" result="effect1_dropShadow_1680_272"/>
<feBlend mode="normal" in="SourceGraphic" in2="effect1_dropShadow_1680_272" result="shape"/>
</filter>
</defs>
</svg>
