<svg width="80" height="80" viewBox="0 0 80 80" fill="none" xmlns="http://www.w3.org/2000/svg">
<path d="M60.207 32.3436C74.6207 17.3254 69.8632 11.4099 69.2135 10.7253C68.5886 10.1353 62.6717 5.38222 47.6549 19.7915C46.4138 20.9816 44.7343 21.5614 43.0606 21.3881L9.37523 17.8702C8.93968 17.8265 8.50414 17.978 8.19387 18.2897L4.42694 22.0552C4.10501 22.3757 3.95206 22.8287 4.01324 23.2788C4.07442 23.7289 4.34099 24.1251 4.73575 24.3509L30.1618 38.8651L22.7561 47.5934L9.64034 49.1186C9.34318 49.1521 9.0635 49.2773 8.84063 49.4769L5.02126 52.8724C4.64544 53.2074 4.46772 53.7129 4.55367 54.2082C4.63961 54.7049 4.9761 55.1215 5.44223 55.3109C5.44223 55.3109 16.4867 59.7857 19.1407 60.8622L24.6921 74.5607C24.8814 75.0268 25.298 75.3633 25.7948 75.4492C26.2915 75.5352 26.7955 75.3589 27.1305 74.9817L30.526 71.1623C30.7241 70.9394 30.8494 70.6597 30.8843 70.3626L32.4095 57.2468L41.1378 49.8411L55.652 75.2672C55.8778 75.6619 56.274 75.9285 56.7241 75.9897C56.7882 75.9984 56.8538 76.0028 56.9178 76.0028C57.3024 76.0028 57.6738 75.8513 57.9477 75.576L61.7132 71.809C62.0235 71.4988 62.1779 71.0647 62.1327 70.6277L58.6149 36.9423C58.4342 35.2584 59.0169 33.5832 60.207 32.3436ZM59.1582 70.2358L57.2325 72.163L42.794 46.8709C42.5799 46.4951 42.2084 46.2329 41.7816 46.1586C41.6972 46.1441 41.6127 46.1368 41.5296 46.1368C41.1873 46.1368 40.8523 46.2577 40.5872 46.482L30.0832 55.3939C29.802 55.6328 29.6214 55.9707 29.5792 56.3363L28.0409 69.5672L26.5085 71.2905L21.6068 59.1943C21.534 59.0137 21.4248 58.8491 21.2864 58.7107C21.0883 58.5111 21.0752 58.5009 8.70662 53.4886L10.4299 51.9562L23.6607 50.4179C24.0278 50.3757 24.3643 50.195 24.6032 49.9139L33.5151 39.4099C33.7948 39.0792 33.9142 38.6422 33.8384 38.2154C33.7627 37.7886 33.502 37.4172 33.1261 37.2031L7.83408 22.7646L9.76124 20.8389L42.7576 24.2854C45.2864 24.549 47.8137 23.6779 49.6724 21.8935C62.4881 9.59489 67.1203 12.7821 67.1553 12.785C67.2004 12.8345 70.4488 17.4653 58.105 30.3261C56.3206 32.1848 55.4495 34.7049 55.7132 37.2409L59.1582 70.2358Z" fill="#D2398D"/>
<path d="M16.1472 10.918C19.2106 8.14307 23.1771 6.72574 27.2936 6.93113C31.4204 7.13506 35.2194 8.93404 37.9943 11.9974C38.2827 12.315 38.6775 12.4766 39.0751 12.4766C39.4233 12.4766 39.7729 12.3528 40.0526 12.0994C40.6483 11.5589 40.6935 10.6383 40.1545 10.0411C36.8566 6.4009 32.341 4.26397 27.4379 4.02071C22.5289 3.79202 17.8311 5.46281 14.1909 8.75778C13.5952 9.29821 13.55 10.2188 14.089 10.816C14.6279 11.4104 15.55 11.4584 16.1472 10.918Z" fill="#D2398D"/>
<path d="M18.4361 13.4362C17.8374 13.9737 17.7893 14.8943 18.3269 15.493C18.8629 16.0902 19.785 16.1412 20.3837 15.6022C22.2089 13.962 24.5526 13.1128 26.9824 13.2439C29.4121 13.3648 31.6626 14.4281 33.3174 16.2417C33.6044 16.5563 33.9991 16.7166 34.3939 16.7166C34.7435 16.7166 35.096 16.5913 35.3757 16.3364C35.97 15.793 36.0122 14.8724 35.4689 14.2781C33.2926 11.8935 30.3298 10.4937 27.1251 10.3349C23.9263 10.1849 20.8381 11.2774 18.4361 13.4362Z" fill="#D2398D"/>
<path d="M75.9773 52.5594C75.734 47.6563 73.5971 43.1406 69.9569 39.8427C69.3597 39.3023 68.4391 39.3489 67.8986 39.9447C67.3582 40.5405 67.4048 41.4625 68.0006 42.003C71.064 44.7779 72.863 48.5783 73.0669 52.7036C73.2708 56.8289 71.8549 60.7881 69.08 63.85C68.5396 64.4458 68.5862 65.3679 69.182 65.9083C69.4602 66.1603 69.8112 66.2856 70.1594 66.2856C70.5571 66.2856 70.9518 66.1239 71.2402 65.8063C74.5367 62.1661 76.2191 57.4625 75.9773 52.5594Z" fill="#D2398D"/>
<path d="M69.6639 52.8712C69.5066 49.6665 68.1052 46.7051 65.7207 44.5274C65.1264 43.9855 64.2043 44.0292 63.6624 44.6206C63.1205 45.2149 63.1628 46.137 63.7556 46.6789C65.5692 48.3322 66.6326 50.5827 66.7535 53.0139C66.8744 55.4451 66.0353 57.7874 64.3951 59.6126C63.8576 60.2113 63.9071 61.1319 64.5044 61.6694C64.7826 61.9199 65.1307 62.0423 65.4774 62.0423C65.8765 62.0423 66.2742 61.8792 66.5612 61.5587C68.72 59.161 69.8212 56.0744 69.6639 52.8712Z" fill="#D2398D"/>
</svg>
