<svg width="80" height="80" viewBox="0 0 80 80" fill="none" xmlns="http://www.w3.org/2000/svg">
<path d="M15.2471 67.5C15.937 67.5 16.497 66.9413 16.497 66.2501C16.497 65.5589 15.937 65.0002 15.2471 65.0002C15.1446 65.0002 12.7472 64.9577 12.7472 61.2503V60.3141C16.337 62.4928 21.928 62.5003 25.2466 62.5003C25.7078 62.5003 26.1303 62.2465 26.3491 61.8403C26.5665 61.4341 26.5428 60.9404 26.2866 60.5579C23.5854 56.5068 12.9697 54.0482 11.7685 53.7807C11.3973 53.7007 11.011 53.7894 10.716 54.0257C10.4198 54.2632 10.2473 54.6206 10.2473 55.0006V61.2503C10.2473 66.1939 13.5184 67.5 15.2471 67.5ZM12.7472 56.5918C15.2858 57.258 19.1194 58.463 21.728 59.9329C18.3894 59.7629 14.4296 59.1704 12.7472 57.093V56.5918Z" fill="#306386"/>
<path d="M55.2449 62.5003C58.5635 62.5003 64.1545 62.4928 67.7444 60.3141V62.5003C67.7444 64.7827 65.8232 64.9902 65.2445 65.0002C64.5545 65.0002 63.9945 65.5589 63.9945 66.2501C63.9945 66.9413 64.5545 67.5 65.2445 67.5C67.2544 67.5 70.2442 66.1689 70.2442 62.5003V55.0006C70.2442 54.6206 70.0718 54.2632 69.7755 54.0257C69.4805 53.7894 69.0943 53.7007 68.7231 53.7807C67.5219 54.0482 56.9049 56.5068 54.205 60.5579C53.9488 60.9416 53.925 61.4341 54.1425 61.8403C54.3612 62.2465 54.785 62.5003 55.2449 62.5003ZM67.7444 56.5918V57.0918C66.0619 59.1692 62.1021 59.7629 58.7635 59.9316C61.3722 58.463 65.2057 57.2593 67.7444 56.5918Z" fill="#306386"/>
<path d="M76.4941 52.5009C76.4941 50.3398 75.1879 46.2512 70.2444 46.2512H64.8209C62.0923 40.209 57.2663 37.7391 57.0538 37.6341C57.0013 37.6079 56.9463 37.5854 56.89 37.5666C56.7288 37.5129 52.8027 36.2529 40.2458 36.2529C27.6889 36.2529 23.7616 37.5129 23.6016 37.5666C23.5453 37.5854 23.4916 37.6079 23.4378 37.6341C23.2254 37.7404 18.3993 40.209 15.6707 46.2512H10.2472C5.30369 46.2512 3.9975 50.3398 4 52.5897L5.24745 70.0001V76.2498C5.24745 78.3172 6.92987 79.9996 8.99727 79.9996H16.4969C18.5643 79.9996 20.2467 78.3172 20.2467 76.2498V74.9999H60.2449V76.2498C60.2449 78.3172 61.9273 79.9996 63.9947 79.9996H71.4943C73.5618 79.9996 75.2442 78.3172 75.2442 76.2498V70.0463L76.4941 52.5009ZM54.8939 39.6703C55.5338 40.5165 57.2763 43.0639 57.6675 46.2512H22.8254C23.2179 43.0814 24.959 40.5227 25.6002 39.6703C27.5127 39.3203 31.8974 38.7516 40.2458 38.7516C48.5992 38.7516 52.9865 39.3203 54.8939 39.6703ZM10.2472 48.7511H16.4969C17.0081 48.7511 17.4669 48.4399 17.6581 47.9649C18.6106 45.5825 19.9643 43.7851 21.2217 42.4939C20.668 43.9488 20.2467 45.6512 20.2467 47.5012C20.2467 48.1924 20.8067 48.7511 21.4967 48.7511H58.9949C59.6849 48.7511 60.2449 48.1924 60.2449 47.5012C60.2449 45.645 59.8211 43.9338 59.2624 42.4751C60.5186 43.7638 61.8723 45.565 62.8335 47.9661C63.0235 48.4411 63.4835 48.7523 63.9947 48.7523H70.2444C73.773 48.7523 73.9867 51.8822 73.9967 52.4134L72.7443 70.0001C72.7443 71.7563 70.9556 72.5 70.2444 72.5H59.5124L56.1288 69.1164C55.8938 68.8814 55.5763 68.7502 55.2451 68.7502H25.2465C24.9153 68.7502 24.5965 68.8814 24.3628 69.1164L20.9792 72.5H10.2472C9.536 72.5 7.74733 71.7563 7.74483 69.9114L6.49739 52.5084C6.50489 51.8809 6.71863 48.7511 10.2472 48.7511ZM55.9776 72.5H24.514L25.764 71.25H54.7276L55.9776 72.5ZM17.7469 76.2498C17.7469 76.9398 17.1856 77.4997 16.4969 77.4997H8.99727C8.30855 77.4997 7.74733 76.9398 7.74733 76.2498V74.2524C8.57229 74.7436 9.47475 74.9999 10.2472 74.9999H17.7469V76.2498ZM71.4943 77.4997H63.9947C63.306 77.4997 62.7448 76.9398 62.7448 76.2498V74.9999H70.2444C71.0169 74.9999 71.9193 74.7436 72.7443 74.2574V76.2498C72.7443 76.9398 72.1843 77.4997 71.4943 77.4997Z" fill="#306386"/>
<path d="M30.2465 62.5009H50.2456C50.9356 62.5009 51.4955 61.9421 51.4955 61.2509C51.4955 60.5597 50.9356 60.001 50.2456 60.001H30.2465C29.5566 60.001 28.9966 60.5597 28.9966 61.2509C28.9966 61.9421 29.5566 62.5009 30.2465 62.5009Z" fill="#306386"/>
<path d="M47.317 20.4113C48.3194 20.4113 49.2606 20.0213 49.9681 19.3138C50.6768 18.6051 51.0668 17.6639 51.0668 16.6614C51.0668 15.6602 50.6768 14.7178 49.9681 14.0103C47.3757 11.4179 43.9234 9.98926 40.246 9.98926C36.5687 9.98926 33.1164 11.4167 30.524 14.0103C29.8153 14.719 29.4253 15.6602 29.4253 16.6627C29.4253 17.6639 29.8153 18.6064 30.5227 19.3138C31.9389 20.7313 34.4113 20.73 35.8262 19.3138C37.0049 18.1364 38.5736 17.4877 40.246 17.4877C41.9172 17.4877 43.4871 18.1364 44.6646 19.3126C45.3733 20.0213 46.3145 20.4113 47.317 20.4113ZM34.0588 17.5464C33.5876 18.0176 32.7639 18.0189 32.2914 17.5452C32.0552 17.3102 31.9252 16.9964 31.9252 16.6614C31.9252 16.3277 32.0552 16.014 32.2914 15.7777C34.4126 13.6566 37.2374 12.4891 40.246 12.4891C43.2546 12.4891 46.0795 13.6566 48.2007 15.779C48.4369 16.0152 48.5669 16.3277 48.5669 16.6627C48.5669 16.9964 48.4369 17.3102 48.2007 17.5477C47.7294 18.0189 46.9057 18.0189 46.4332 17.5464C44.7821 15.8965 42.5847 14.9878 40.246 14.9878C37.9074 14.9878 35.71 15.8952 34.0588 17.5464Z" fill="#306386"/>
<path d="M36.4958 23.7322C36.4958 25.7996 38.1783 27.4821 40.2457 27.4821C42.3131 27.4821 43.9955 25.7996 43.9955 23.7322C43.9955 21.6648 42.3131 19.9824 40.2457 19.9824C38.1783 19.9824 36.4958 21.6648 36.4958 23.7322ZM41.4956 23.7322C41.4956 24.421 40.9344 24.9822 40.2457 24.9822C39.557 24.9822 38.9957 24.421 38.9957 23.7322C38.9957 23.0435 39.557 22.4823 40.2457 22.4823C40.9344 22.4823 41.4956 23.0435 41.4956 23.7322Z" fill="#306386"/>
<path d="M26.4964 13.3319C27.4989 13.3319 28.4401 12.9419 29.1475 12.2332C32.2111 9.16957 36.2922 7.48215 40.637 7.48215C44.983 7.48215 49.0629 9.16957 52.1265 12.2319C53.5426 13.6494 56.015 13.6481 57.43 12.2332C58.1387 11.5245 58.5287 10.5833 58.5287 9.5808C58.5287 8.57835 58.1387 7.63714 57.43 6.92968C52.9627 2.46113 46.9992 0 40.642 0L40.2245 0.00374982C34.0211 0.111245 28.2038 2.57113 23.8453 6.93093C23.1366 7.63839 22.7466 8.58085 22.7466 9.58205C22.7466 10.5833 23.1366 11.5257 23.844 12.2332C24.5527 12.9419 25.494 13.3319 26.4964 13.3319ZM25.6127 8.69834C29.5113 4.79978 34.7148 2.59988 40.267 2.50363L40.642 2.49988C46.3317 2.49988 51.6665 4.70103 55.6638 8.69834C55.9 8.93333 56.03 9.24707 56.03 9.58205C56.03 9.91579 55.9 10.2295 55.6638 10.4658C55.1926 10.937 54.3689 10.937 53.8964 10.4658C50.3603 6.92968 45.6518 4.98227 40.6395 4.98227C35.626 4.98227 30.9187 6.92968 27.3814 10.4658C26.9101 10.937 26.0864 10.9382 25.6152 10.4645C25.3765 10.2295 25.2465 9.91579 25.2465 9.58205C25.2465 9.24832 25.3765 8.93458 25.6127 8.69834Z" fill="#306386"/>
</svg>
