<svg width="80" height="80" viewBox="0 0 80 80" fill="none" xmlns="http://www.w3.org/2000/svg">
<path d="M66.5483 53.7217L62.9855 53.6592C62.9699 53.6592 62.9699 53.6592 62.9543 53.6592C62.2355 53.6592 61.6417 54.2373 61.626 54.9562C61.6104 55.6906 62.2042 56.3 62.923 56.3156L66.4858 56.3781C66.5014 56.3781 66.5014 56.3781 66.517 56.3781C67.2358 56.3781 67.8296 55.8 67.8453 55.0812C67.8609 54.3311 67.2671 53.7373 66.5483 53.7217Z" fill="#306386"/>
<path d="M77.611 53.6601C77.6266 53.6445 77.6266 53.6288 77.6422 53.6132C77.861 53.6757 78.0797 53.7382 78.2829 53.8007C78.4079 53.8476 78.5485 53.8632 78.6735 53.8632C79.2361 53.8632 79.7674 53.5038 79.9393 52.9256C80.158 52.2225 79.7674 51.4724 79.0642 51.2536C78.486 51.0661 77.8766 50.9099 77.2359 50.7536C71.8605 49.441 64.6881 49.1285 56.7969 49.441L46.9836 41.4404C46.7805 41.2841 46.5461 41.1747 46.296 41.1435C31.6543 39.4871 10.0433 47.144 9.12131 47.4721C9.12131 47.4721 9.12131 47.4721 9.10569 47.4721C9.10569 47.4721 9.10569 47.4721 9.09006 47.4721L6.26172 48.5347C5.57416 48.8003 5.23039 49.566 5.48041 50.2379C5.68355 50.7692 6.18359 51.0974 6.7305 51.0974C6.88677 51.0974 7.04303 51.0661 7.19929 51.0193L8.52752 50.5192L9.37133 55.5977C4.29282 56.5822 1.08944 57.2854 1.04257 57.301C0.683163 57.3791 0.370639 57.6135 0.183124 57.926C-0.00439031 58.2386 -0.0512689 58.6292 0.0581145 58.9886L2.57393 67.3018C2.37079 67.3486 2.1364 67.3799 1.87075 67.3799C1.13632 67.3799 0.542527 67.9737 0.542527 68.7081C0.542527 69.4425 1.13632 70.0363 1.87075 70.0363C4.15218 70.0363 5.32414 68.8956 6.27734 67.9737C7.08991 67.1924 7.63682 66.6611 8.82441 66.6611C10.0276 66.6611 10.5589 67.1768 11.3715 67.9737C12.3247 68.8956 13.4966 70.0363 15.7781 70.0363C18.0595 70.0363 19.2315 68.8956 20.1847 67.9737C20.9972 67.1924 21.5441 66.6611 22.7317 66.6611C23.4662 66.6611 24.06 66.0673 24.06 65.3329C24.06 64.5984 23.4662 64.0046 22.7317 64.0046C20.4503 64.0046 19.2783 65.1453 18.3251 66.0673C17.5126 66.8486 16.9657 67.3799 15.7781 67.3799C14.5749 67.3799 14.0436 66.8642 13.231 66.0673C12.2778 65.1453 11.1058 64.0046 8.82441 64.0046C6.87114 64.0046 5.73043 64.8328 4.85536 65.661L3.01147 59.598C4.96474 59.1918 8.82441 58.3948 13.8092 57.4729C14.528 57.3322 15.0124 56.6447 14.8718 55.9259C14.7311 55.2071 14.0436 54.7227 13.3248 54.8633C12.856 54.9414 12.4028 55.0352 11.9653 55.1133L11.0433 49.6129C12.981 48.9722 17.3876 47.5502 22.7317 46.2533C24.7163 45.7689 26.6539 45.3626 28.5134 45.0032C29.0916 46.2533 30.1229 48.7535 30.873 51.9725C26.3726 52.6131 21.9973 53.3163 17.9189 54.0351C17.2001 54.1601 16.7156 54.8477 16.8407 55.5665C16.9657 56.2853 17.6532 56.7697 18.372 56.6447C51.859 50.8161 67.8133 51.6443 74.9232 52.9569C73.8294 54.7852 70.3135 60.3793 65.8288 64.1765C65.4225 64.0828 64.9537 64.0203 64.4381 64.0203C62.1566 64.0203 60.9847 65.161 60.0315 66.0829C59.2189 66.8642 58.672 67.3955 57.4844 67.3955C56.2968 67.3955 55.7499 66.8799 54.9373 66.0829C53.9841 65.161 52.8122 64.0203 50.5307 64.0203C48.2493 64.0203 47.0774 65.161 46.1242 66.0829C45.3116 66.8642 44.7647 67.3955 43.5771 67.3955C42.3739 67.3955 41.8426 66.8799 41.03 66.0829C40.0768 65.161 38.9049 64.0203 36.6234 64.0203C34.342 64.0203 33.17 65.161 32.2168 66.0829C31.4043 66.8642 30.8574 67.3955 29.6698 67.3955C28.5759 67.3955 28.0134 66.9424 27.3571 66.3173C26.8258 65.8173 25.982 65.8329 25.4819 66.3642C24.9819 66.8955 24.9975 67.7393 25.5288 68.2393C26.4508 69.1144 27.6071 70.052 29.6698 70.052C31.9512 70.052 33.1232 68.9113 34.0764 67.9893C34.8889 67.208 35.4358 66.6767 36.6234 66.6767C37.8266 66.6767 38.3579 67.1924 39.1705 67.9893C40.1237 68.9113 41.2957 70.052 43.5771 70.052C45.8585 70.052 47.0305 68.9113 47.9837 67.9893C48.7962 67.208 49.3432 66.6767 50.5307 66.6767C51.734 66.6767 52.2653 67.1924 53.0778 67.9893C54.031 68.9113 55.203 70.052 57.4844 70.052C59.7658 70.052 60.9378 68.9113 61.891 67.9893C62.7036 67.208 63.2505 66.6767 64.4381 66.6767C65.6413 66.6767 66.1726 67.1924 66.9851 67.9893C67.9383 68.9113 69.1103 70.052 71.3917 70.052C73.6731 70.052 74.8451 68.9113 75.7983 67.9893C76.6109 67.208 77.1578 66.6767 78.3454 66.6767C79.0798 66.6767 79.6736 66.0829 79.6736 65.3485C79.6736 64.614 79.0798 64.0203 78.3454 64.0203C76.064 64.0203 74.892 65.161 73.9388 66.0829C73.1262 66.8642 72.5793 67.3955 71.3917 67.3955C70.1885 67.3955 69.6572 66.8799 68.8447 66.0829C68.6728 65.911 68.4853 65.7391 68.2977 65.5673C73.6732 60.7231 77.4391 53.957 77.611 53.6601ZM33.5294 51.613C32.8419 48.5347 31.8887 46.0657 31.2324 44.55C36.8422 43.6437 41.7176 43.3624 45.6085 43.7531L52.8278 49.6441C46.5461 50.0192 39.9518 50.738 33.5294 51.613Z" fill="#306386"/>
<path d="M43.9826 30.4237C44.9827 30.4237 45.9202 30.033 46.639 29.3298C47.3422 28.6266 47.7329 27.6734 47.7329 26.6734C47.7329 25.6733 47.3422 24.7357 46.639 24.0169C44.0451 21.423 40.5917 20.001 36.9195 20.001C33.2474 20.001 29.794 21.423 27.2 24.0169C26.4969 24.7201 26.1062 25.6733 26.1062 26.6734C26.1062 27.6734 26.4969 28.611 27.2 29.3298C28.622 30.7518 31.091 30.7518 32.4973 29.3298C33.6693 28.1579 35.2475 27.5016 36.9195 27.5016C38.5915 27.5016 40.1542 28.1579 41.3417 29.3298C42.0293 30.033 42.9825 30.4237 43.9826 30.4237ZM30.7159 27.5484C30.2471 28.0172 29.419 28.0172 28.9502 27.5484C28.7158 27.314 28.5908 27.0015 28.5908 26.6577C28.5908 26.3296 28.7158 26.0171 28.9502 25.767C31.0753 23.6419 33.9037 22.4855 36.9039 22.4855C39.9041 22.4855 42.7325 23.6575 44.8576 25.7827C45.092 26.0171 45.217 26.3296 45.217 26.6734C45.217 27.0015 45.092 27.314 44.8576 27.5641C44.3889 28.0328 43.5607 28.0328 43.0919 27.5641C41.4355 25.9077 39.2478 25.0014 36.9039 25.0014C34.56 24.9857 32.3723 25.9077 30.7159 27.5484Z" fill="#306386"/>
<path d="M33.1543 33.7366C33.1543 35.7993 34.8419 37.4869 36.9046 37.4869C38.9672 37.4869 40.6549 35.7993 40.6549 33.7366C40.6549 31.674 38.9672 29.9863 36.9046 29.9863C34.8419 29.9863 33.1543 31.674 33.1543 33.7366ZM38.1547 33.7366C38.1547 34.4242 37.5921 34.9867 36.9046 34.9867C36.217 34.9867 35.6545 34.4242 35.6545 33.7366C35.6545 33.0491 36.217 32.4865 36.9046 32.4865C37.5921 32.4865 38.1547 33.0491 38.1547 33.7366Z" fill="#306386"/>
<path d="M23.1531 23.3292C24.1532 23.3292 25.0908 22.9385 25.8096 22.2353C28.8723 19.1726 32.9507 17.485 37.2948 17.485C41.6389 17.485 45.7174 19.1726 48.7801 22.2353C50.2021 23.6573 52.671 23.6573 54.0774 22.2353C54.7806 21.5321 55.1712 20.5789 55.1712 19.5789C55.1712 18.5788 54.7806 17.6412 54.0774 16.9224C49.6083 12.4533 43.6391 10 37.2948 10H36.8729C30.6693 10.1094 24.8564 12.5627 20.4967 16.9224C19.7935 17.6256 19.4028 18.5788 19.4028 19.5789C19.4028 20.5789 19.7935 21.5165 20.4967 22.2353C21.2155 22.9541 22.153 23.3292 23.1531 23.3292ZM22.2781 18.7038C26.1846 14.7972 31.3881 12.6096 36.9354 12.5158H37.3105C42.9984 12.5158 48.3426 14.7191 52.3272 18.7194C52.5616 18.9538 52.6866 19.2663 52.6866 19.6101C52.6866 19.9383 52.5616 20.2508 52.3272 20.5008C51.8585 20.9696 51.0303 20.9696 50.5615 20.5008C47.03 16.9693 42.3108 15.016 37.3105 15.016C32.2945 15.016 27.591 16.9693 24.0438 20.5008C23.575 20.9696 22.7468 20.9696 22.2781 20.5008C22.0437 20.2664 21.903 19.9539 21.903 19.6257C21.903 19.2507 22.0437 18.9382 22.2781 18.7038Z" fill="#306386"/>
</svg>
