<svg width="8" height="6" viewBox="0 0 8 6" fill="none" xmlns="http://www.w3.org/2000/svg">
<path d="M0.197008 0.710936C0.134583 0.777228 0.0850348 0.856098 0.0512217 0.942996C0.0174086 1.02989 -1.9132e-07 1.1231 -1.87205e-07 1.21724C-1.8309e-07 1.31138 0.0174087 1.40458 0.0512218 1.49148C0.0850349 1.57838 0.134583 1.65725 0.197008 1.72354L3.52712 5.28906C3.58904 5.3559 3.6627 5.40895 3.74386 5.44516C3.82502 5.48136 3.91208 5.5 4 5.5C4.08792 5.5 4.17498 5.48136 4.25614 5.44516C4.3373 5.40895 4.41096 5.3559 4.47288 5.28906L7.80299 1.72354C7.86542 1.65725 7.91497 1.57838 7.94878 1.49148C7.98259 1.40458 8 1.31138 8 1.21724C8 1.1231 7.98259 1.02989 7.94878 0.942996C7.91497 0.856098 7.86542 0.777228 7.80299 0.710935C7.74107 0.644097 7.66741 0.591046 7.58625 0.554843C7.50509 0.51864 7.41804 0.5 7.33011 0.5C7.24219 0.5 7.15514 0.51864 7.07398 0.554843C6.99282 0.591047 6.91915 0.644097 6.85724 0.710935L4 3.77728L1.14276 0.710936C1.08085 0.644097 1.00718 0.591047 0.926022 0.554843C0.844861 0.51864 0.757808 0.5 0.669885 0.5C0.581962 0.5 0.494909 0.51864 0.413748 0.554843C0.332587 0.591047 0.258924 0.644097 0.197008 0.710936Z" fill="#D2398D"/>
</svg>
