<svg width="32" height="32" viewBox="0 0 32 32" fill="none" xmlns="http://www.w3.org/2000/svg">
<path d="M12.4318 16.4289C10.4629 16.7525 8.79787 17.2224 7.55836 17.7619C7.12011 17.9529 6.71766 18.5229 6.679 18.9998C6.65409 19.3141 6.64111 19.6324 6.64111 19.9529C6.64111 20.2731 6.65435 20.5915 6.679 20.9057C6.7174 21.3823 7.12011 21.9527 7.55836 22.1434C8.79787 22.6836 10.4622 23.153 12.4318 23.4768C12.9033 23.5541 13.2523 23.2192 13.2193 22.7428C13.156 21.8172 13.1228 20.8816 13.1228 19.9534C13.1228 19.025 13.156 18.0888 13.2193 17.164C13.2523 16.6869 12.9036 16.3521 12.4318 16.4289Z" fill="#306386"/>
<path d="M14.1524 30.9285C14.5987 31.1013 14.8167 30.8555 14.6553 30.4053C14.1755 29.0665 13.8058 27.4857 13.5494 25.7903C13.4786 25.3176 13.0471 24.8855 12.5738 24.8144C10.8786 24.5581 9.2979 24.1878 7.95875 23.708C7.50882 23.5471 7.26258 23.7654 7.43539 24.2111C8.62975 27.2865 11.0784 29.7354 14.1524 30.9285Z" fill="#306386"/>
<path d="M16.2219 9.09986C15.6817 10.3399 15.212 12.0034 14.8887 13.9731C14.8109 14.4451 15.1451 14.7938 15.622 14.7608C16.5475 14.697 17.4835 14.6643 18.4119 14.6643C19.3405 14.6643 20.2757 14.697 21.201 14.7608C21.6779 14.7938 22.0124 14.4451 21.9348 13.9731C21.6115 12.0044 21.1413 10.3399 20.6021 9.09986C20.4111 8.66187 19.8411 8.25942 19.3641 8.2205C19.0502 8.19481 18.7318 8.18262 18.4116 8.18262C18.0906 8.18262 17.7728 8.19559 17.4583 8.2205C16.9824 8.25968 16.4126 8.66213 16.2219 9.09986Z" fill="#306386"/>
<path d="M14.1525 8.9773C11.0785 10.1712 8.6298 12.6198 7.4357 15.6949C7.26341 16.1406 7.50887 16.3586 7.95906 16.1977C9.29821 15.7174 10.8789 15.3482 12.5738 15.0918C13.0469 15.0205 13.4786 14.5885 13.5497 14.1157C13.8061 12.4203 14.1758 10.8396 14.6556 9.50067C14.8173 9.05048 14.5988 8.80475 14.1525 8.9773Z" fill="#306386"/>
<path d="M23.2728 14.1159C23.3437 14.5884 23.7757 15.0205 24.2487 15.0921C25.9436 15.3482 27.5246 15.7177 28.8635 16.1972C29.3137 16.3586 29.5602 16.1401 29.3866 15.6943C28.1927 12.6198 25.7446 10.1711 22.6693 8.97728C22.2238 8.80472 22.0058 9.05071 22.1664 9.50064C22.6467 10.8398 23.0165 12.4208 23.2728 14.1159Z" fill="#306386"/>
<path d="M30.1438 19.0006C30.1057 18.5237 29.7022 17.9533 29.2642 17.7626C28.0247 17.2226 26.3596 16.7535 24.3907 16.4302C23.9195 16.3524 23.5705 16.6868 23.6032 17.164C23.6668 18.089 23.6995 19.0255 23.6995 19.9534C23.6995 20.8818 23.6668 21.818 23.6032 22.7435C23.5705 23.2204 23.9195 23.5551 24.3907 23.477C26.3596 23.1537 28.0247 22.6836 29.2642 22.1441C29.7029 21.9534 30.1051 21.382 30.1438 20.9062C30.17 20.5914 30.1817 20.2736 30.1817 19.9526C30.1814 19.6327 30.1684 19.314 30.1438 19.0006Z" fill="#306386"/>
<path d="M22.4016 19.9531C22.4016 18.9331 22.3637 17.9492 22.2923 17.0081C22.2568 16.5317 21.8328 16.1074 21.3567 16.0721C20.4156 16.0016 19.4324 15.9629 18.4114 15.9629C17.3919 15.9629 16.4077 16.001 15.4668 16.0721C14.9902 16.1079 14.5659 16.5317 14.5301 17.0081C14.4596 17.9489 14.4209 18.9331 14.4209 19.9531C14.4209 20.9728 14.4593 21.957 14.5301 22.8982C14.5665 23.3743 14.9902 23.7998 15.4668 23.8346C16.4074 23.9049 17.3916 23.9438 18.4114 23.9438C19.4311 23.9438 20.4156 23.9052 21.3567 23.8346C21.8331 23.798 22.2573 23.3743 22.2923 22.8982C22.364 21.957 22.4016 20.9731 22.4016 19.9531Z" fill="#306386"/>
<path d="M28.8638 23.708C27.5249 24.1889 25.9442 24.5581 24.2488 24.8145C23.776 24.885 23.3443 25.3173 23.2729 25.7903C23.0165 27.485 22.6468 29.0665 22.1673 30.4054C22.0059 30.855 22.2241 31.1021 22.6696 30.9285C25.7449 29.7346 28.1936 27.2862 29.3872 24.2117C29.56 23.7651 29.314 23.5472 28.8638 23.708Z" fill="#306386"/>
<path d="M21.2005 25.1447C20.2755 25.2083 19.3393 25.2415 18.4101 25.2415C17.482 25.2415 16.5473 25.2083 15.6213 25.1447C15.1446 25.112 14.8099 25.461 14.8877 25.9325C15.2115 27.9019 15.6812 29.5662 16.2204 30.8059C16.4111 31.2442 16.9817 31.6466 17.4581 31.6853C17.7723 31.7112 18.0902 31.7234 18.4114 31.7234C18.7316 31.7234 19.0497 31.7097 19.3637 31.6853C19.8408 31.6472 20.4107 31.2445 20.6016 30.8059C21.1419 29.5662 21.6113 27.9019 21.9348 25.9325C22.0116 25.4607 21.6772 25.112 21.2005 25.1447Z" fill="#306386"/>
<path d="M9.33547 5.76572C9.4281 5.83656 9.50594 5.80905 9.54901 5.7787C9.51788 5.8184 9.46391 5.89676 9.38191 6.03947C9.38191 6.03947 9.09052 6.47746 9.18731 6.62407L9.18912 6.62666C9.2872 6.77534 9.80278 6.67934 9.80278 6.67934C9.96573 6.65987 10.0589 6.64119 10.1092 6.62874C10.0633 6.6565 10.0075 6.71696 10.0363 6.82905L10.2986 7.70893C10.3028 7.72217 10.3082 7.73384 10.3134 7.74526L11.0044 7.15158L11.061 6.40403C11.0651 6.34669 11.0771 6.27585 11.0771 6.27585C11.0771 6.27585 11.2148 6.18192 11.2579 6.16246L13.696 4.66425L14.9702 8.35607C15.005 8.45467 15.0969 8.4801 15.1765 8.41211L15.8462 7.83867C15.9259 7.77017 15.976 7.63135 15.9586 7.52678L15.2959 3.60014L17.6299 1.96674C18.0598 1.66445 18.4026 1.20077 18.3948 0.928578C18.3917 0.825825 18.3569 0.721516 18.3009 0.626548L18.2996 0.624213C18.2347 0.535213 18.1527 0.461781 18.0583 0.418968C17.8128 0.305317 17.25 0.435834 16.8027 0.711656L14.381 2.21039L11.0345 0.0489554C10.9455 -0.00761023 10.7989 -0.0166919 10.7042 0.0297542L9.91332 0.418189C9.81887 0.464635 9.80564 0.558825 9.8827 0.629921L12.7709 3.25945L10.4312 4.90686C10.397 4.93903 10.2558 5.02907 10.2558 5.02907C10.2558 5.02907 10.1855 5.01117 10.131 4.99223L9.42187 4.74884L8.604 5.14973C8.61257 5.15907 8.62061 5.16867 8.63229 5.17697L9.33547 5.76572Z" fill="#D2398D"/>
<path d="M1.63379 17.8754C1.67349 17.5135 1.74848 17.165 1.82762 16.7986C1.8572 16.6616 1.88652 16.5251 1.91402 16.3886C1.94438 16.2101 1.99757 16.0433 2.05414 15.8666C2.08242 15.7781 2.11045 15.6899 2.13613 15.6011L2.37771 14.8295C2.45114 14.6574 2.5212 14.4851 2.59099 14.3141C2.72618 13.9828 2.85358 13.6699 2.99811 13.3735L3.35619 12.6916C3.38888 12.6314 3.42313 12.5655 3.45712 12.4996C3.53652 12.3468 3.61125 12.2023 3.69532 12.0821C3.80041 11.9233 3.89408 11.7759 3.98645 11.6304C4.15563 11.3639 4.31573 11.112 4.48491 10.8826L5.28461 9.85375C5.46157 9.65552 5.64788 9.45546 5.82691 9.26293L6.08302 8.98685C6.28359 8.75591 6.50051 8.56105 6.71017 8.37267L7.48937 7.67131C7.75819 7.4588 7.98886 7.28495 8.17724 7.14301C8.23978 7.09579 8.29764 7.0522 8.35083 7.01172L8.67466 7.45698C8.61524 7.4985 8.55115 7.54287 8.48135 7.59087C8.28103 7.72917 8.03687 7.89783 7.76286 8.09633L7.73432 8.11864L7.00208 8.72997C6.80202 8.89421 6.5755 9.08052 6.35339 9.31794L5.58041 10.0875L5.55083 10.1197L4.75658 11.058C4.56742 11.2918 4.39902 11.5339 4.23633 11.7682C4.1437 11.9015 4.04951 12.037 3.95117 12.1719C3.83596 12.3206 3.74203 12.4854 3.65147 12.6442C3.61981 12.6994 3.58816 12.7552 3.55521 12.8102L3.18597 13.4457C3.02276 13.7474 2.8842 14.0495 2.75057 14.3414C2.67403 14.5085 2.5967 14.6771 2.51497 14.8458L2.49369 14.8967L2.2298 15.6331C2.20178 15.7163 2.17506 15.7885 2.14859 15.8601C2.08242 16.0394 2.00717 16.2428 1.96203 16.4629C1.93478 16.5737 1.90105 16.7026 1.86732 16.8324C1.77987 17.1676 1.6901 17.5122 1.63379 17.8754Z" fill="#D2398D"/>
<path d="M8.45864 6.27734C8.45864 6.27734 8.34032 6.36738 8.11795 6.5363C7.89584 6.70755 7.56968 6.94601 7.15477 7.27425C6.94849 7.46003 6.71989 7.6658 6.47106 7.88947C6.22352 8.11365 5.94821 8.35055 5.70145 8.63494C5.44509 8.91336 5.16797 9.20501 4.88592 9.52079C4.62593 9.85551 4.3527 10.2074 4.06727 10.5745C3.79171 10.9479 3.54573 11.3675 3.27043 11.7842C3.12668 11.9892 3.02029 12.2222 2.8973 12.4495C2.7769 12.6781 2.65521 12.9103 2.53196 13.1459C2.29921 13.6234 2.10953 14.1382 1.89027 14.6496C1.80698 14.9161 1.72291 15.1854 1.63755 15.4573C1.55866 15.7306 1.45384 15.9989 1.40531 16.2861C1.29115 16.8546 1.14117 17.4252 1.09965 18.0222C1.07111 18.3196 1.02518 18.6157 1.01143 18.9161C1.00832 19.2177 1.00572 19.5207 1.00261 19.8246C1.00468 19.9766 0.993267 20.1284 1.0065 20.2807L1.04957 20.7374C1.08201 21.042 1.10043 21.3482 1.14532 21.6515L1.33188 22.5558C1.36717 22.7053 1.38482 22.8594 1.43464 23.0052L1.57735 23.445C1.6775 23.7359 1.75794 24.034 1.87471 24.3176L2.25821 25.1547C2.37316 25.4388 2.53715 25.697 2.69698 25.956C2.86019 26.2188 3.00057 26.4679 3.18168 26.7375C3.35865 26.9713 3.53483 27.2038 3.71024 27.4358C3.90536 27.6628 4.11009 27.8857 4.30807 28.1081C4.72349 28.5297 5.14591 28.927 5.60129 29.2723C6.50167 29.9732 7.46615 30.5163 8.41972 30.9257C9.379 31.3279 10.3289 31.5785 11.2119 31.7558C11.6582 31.8191 12.0817 31.9063 12.4917 31.9286C12.6959 31.946 12.8949 31.9634 13.0879 31.9794C13.2818 31.9844 13.4699 31.988 13.6523 31.9922C13.7963 31.9935 13.9362 31.9999 14.0721 31.9999C14.1087 31.9999 14.1453 31.9994 14.1814 31.9984C14.3511 31.9906 14.5151 31.9831 14.6728 31.9758C14.8301 31.9688 14.9811 31.9618 15.1248 31.9553C15.2683 31.9392 15.4053 31.9244 15.5351 31.9099C15.7943 31.8788 16.027 31.8611 16.2266 31.8282C16.4266 31.7931 16.5961 31.7633 16.7338 31.7394C17.0089 31.6912 17.1555 31.6655 17.1555 31.6655C17.1555 31.6655 17.0078 31.6849 16.731 31.7215C16.5929 31.7397 16.4225 31.762 16.2219 31.7887C16.0213 31.8139 15.7883 31.8212 15.5293 31.8411C15.3996 31.85 15.2634 31.859 15.1202 31.8686C14.9761 31.8694 14.8262 31.8697 14.6697 31.8702C14.5132 31.871 14.3508 31.8712 14.1816 31.872C14.013 31.8702 13.8383 31.8533 13.658 31.8443C13.4782 31.8326 13.2922 31.8206 13.1009 31.8082C12.911 31.7835 12.7156 31.7586 12.5148 31.7327C12.1115 31.6943 11.6982 31.5897 11.2633 31.5098C10.4039 31.2988 9.48616 31.0139 8.57203 30.5848C7.66309 30.1478 6.75596 29.5845 5.92278 28.8777C5.50217 28.53 5.11296 28.1299 4.73906 27.7178C4.56417 27.5043 4.38799 27.2894 4.21102 27.0733C4.04548 26.8346 3.87941 26.5943 3.71231 26.3537C3.15418 25.3914 2.60798 24.342 2.35058 23.2203L2.23382 22.8054C2.19308 22.6682 2.18348 22.5223 2.15624 22.3814L2.0182 21.534C1.98862 21.2496 1.98446 20.9631 1.96604 20.6795L1.94295 20.2548C1.9362 20.1136 1.95436 19.9717 1.95852 19.8305C1.97279 19.5487 1.98706 19.2682 2.00159 18.9891C2.02624 18.7112 2.08203 18.4366 2.11939 18.1626C2.17881 17.6123 2.3441 17.0871 2.47046 16.5666C2.52443 16.3032 2.63471 16.0575 2.71826 15.8079C2.80752 15.5601 2.89522 15.3141 2.98241 15.071C3.20789 14.6052 3.4012 14.1376 3.63499 13.7054C3.75876 13.4926 3.88045 13.2827 4.00059 13.0759C4.12332 12.8711 4.22841 12.6604 4.3706 12.4765C4.64357 12.1026 4.88384 11.7253 5.15318 11.3919C5.42952 11.0649 5.69496 10.7517 5.94743 10.4539C6.22378 10.178 6.48585 9.91701 6.73261 9.67154C6.97262 9.41544 7.22354 9.22135 7.44928 9.03323C7.67424 8.8446 7.88131 8.67178 8.06813 8.51558C8.48329 8.21485 8.82891 7.98366 9.05491 7.82356C9.28429 7.6645 9.4065 7.57913 9.4065 7.57913L8.45864 6.27734Z" fill="#D2398D"/>
</svg>
